# This file uses centimeters as units for non-parametric coordinates.

mtllib wandaLeft.mtl
g default
v 0.000253 -0.025794 0.002166
v 0.056945 -0.082647 -0.085310
v 0.058214 -0.077713 -0.080156
v 0.045382 -0.089256 -0.065561
v 0.048322 -0.083496 -0.063241
v 0.034059 -0.080677 -0.047782
v 0.037751 -0.075962 -0.046636
v 0.013779 -0.053544 -0.017250
v 0.018781 -0.050261 -0.018025
v 0.005930 -0.023283 0.000282
v 0.000421 -0.009809 0.007947
v -0.000643 -0.023839 -0.004330
v 0.012067 -0.050576 -0.022483
v 0.030886 -0.076030 -0.050849
v 0.041366 -0.083470 -0.067286
v 0.051165 -0.077779 -0.084050
v 0.057725 -0.063147 -0.096424
v 0.064349 -0.066116 -0.099261
v 0.059265 -0.043491 -0.101045
v 0.066118 -0.043914 -0.104487
v 0.055414 -0.024105 -0.096705
v 0.061499 -0.021163 -0.099282
v 0.046117 -0.011759 -0.082655
v 0.051215 -0.008086 -0.083721
v 0.024762 0.002976 -0.049013
v 0.028340 0.007938 -0.047680
v 0.006687 0.007056 -0.019642
v 0.009351 0.012750 -0.016915
v 0.000092 0.012142 -0.001570
v 0.002357 0.008166 -0.001347
v 0.013324 0.007916 -0.015167
v 0.031555 0.003774 -0.044794
v 0.053114 -0.011112 -0.078742
v 0.062500 -0.023549 -0.092931
v 0.066411 -0.043116 -0.097314
v 0.064830 -0.062957 -0.092625
v -0.001800 0.007640 -0.005710
vt 0.957031 1.367188
vt 0.957031 1.367188
vt 0.953125 1.363281
vt 0.957031 1.367188
vt 0.957031 1.367188
vt 0.953125 1.363281
vt 0.953125 1.363281
vt 0.957031 1.367188
vt 0.953125 1.367188
vt 0.957031 1.367188
vt 0.953125 1.367188
vt 0.953125 1.367188
vt 0.953125 1.367188
vt 0.953125 1.367188
vt 0.953125 1.371094
vt 0.953125 1.367188
vt 0.953125 1.371094
vt 0.953125 1.371094
vt 0.953125 1.371094
vt 0.953125 1.371094
vt 0.949219 1.375000
vt 0.953125 1.371094
vt 0.949219 1.375000
vt 0.949219 1.375000
vt 0.949219 1.378906
vt 0.949219 1.371094
vt 0.949219 1.375000
vt 0.949219 1.375000
vt 0.949219 1.371094
vt 0.953125 1.371094
vt 0.949219 1.371094
vt 0.953125 1.367188
vt 0.953125 1.371094
vt 0.953125 1.371094
vt 0.953125 1.367188
vt 0.953125 1.367188
vt 0.953125 1.367188
vt 0.953125 1.367188
vt 0.953125 1.367188
vt 0.953125 1.367188
vt 0.953125 1.367188
vt 0.953125 1.363281
vt 0.953125 1.367188
vt 0.957031 1.367188
vt 0.953125 1.363281
vt 0.953125 1.363281
vt 0.957031 1.367188
vt 0.957031 1.367188
vt 0.957031 1.367188
vt 0.957031 1.371094
vt 0.957031 1.367188
vt 0.957031 1.367188
vt 0.957031 1.371094
vt 0.957031 1.371094
vt 0.957031 1.371094
vt 0.957031 1.375000
vt 0.957031 1.371094
vt 0.957031 1.371094
vt 0.957031 1.375000
vt 0.957031 1.375000
vt 0.957031 1.375000
vt 0.957031 1.375000
vt 0.957031 1.375000
vt 0.957031 1.375000
vt 0.957031 1.375000
vt 0.957031 1.378906
vt 0.957031 1.375000
vt 0.957031 1.378906
vt 0.957031 1.378906
vt 0.957031 1.378906
vt 0.957031 1.378906
vt 0.957031 1.378906
vt 0.957031 1.378906
vt 0.953125 1.382813
vt 0.957031 1.378906
vt 0.957031 1.378906
vt 0.953125 1.382813
vt 0.953125 1.382813
vt 0.953125 1.382813
vt 0.953125 1.382813
vt 0.953125 1.382813
vt 0.953125 1.382813
vt 0.953125 1.382813
vt 0.953125 1.382813
vt 0.953125 1.382813
vt 0.949219 1.382813
vt 0.953125 1.382813
vt 0.949219 1.382813
vt 0.949219 1.382813
vt 0.953125 1.382813
vt 0.949219 1.382813
vt 0.953125 1.382813
vt 0.953125 1.382813
vt 0.953125 1.382813
vt 0.953125 1.382813
vt 0.953125 1.382813
vt 0.953125 1.382813
vt 0.953125 1.382813
vt 0.953125 1.382813
vt 0.953125 1.382813
vt 0.953125 1.382813
vt 0.957031 1.378906
vt 0.953125 1.382813
vt 0.957031 1.378906
vt 0.957031 1.378906
vt 0.957031 1.378906
vt 0.957031 1.378906
vt 0.957031 1.378906
vt 0.957031 1.378906
vt 0.957031 1.375000
vt 0.957031 1.378906
vt 0.957031 1.378906
vt 0.957031 1.375000
vt 0.957031 1.375000
vt 0.957031 1.375000
vt 0.957031 1.375000
vt 0.957031 1.375000
vt 0.957031 1.375000
vt 0.957031 1.375000
vt 0.957031 1.371094
vt 0.957031 1.375000
vt 0.957031 1.371094
vt 0.957031 1.371094
vt 0.957031 1.371094
vt 0.957031 1.371094
vt 0.957031 1.367188
vt 0.957031 1.371094
vt 0.957031 1.367188
vt 0.957031 1.367188
vt 0.953125 1.382813
vt 0.949219 1.382813
vt 0.949219 1.382813
vt 0.175781 1.484375
vt 0.109375 1.503906
vt 0.253906 1.503906
vt 0.253906 1.503906
vt 0.109375 1.503906
vt 0.308594 1.546875
vt 0.109375 1.503906
vt 0.062500 1.550781
vt 0.308594 1.546875
vt 0.308594 1.546875
vt 0.062500 1.550781
vt 0.316406 1.617188
vt 0.062500 1.550781
vt 0.050781 1.617188
vt 0.316406 1.617188
vt 0.316406 1.617188
vt 0.050781 1.617188
vt 0.296875 1.750000
vt 0.050781 1.617188
vt 0.074219 1.753906
vt 0.296875 1.750000
vt 0.074219 1.753906
vt 0.117188 1.855469
vt 0.296875 1.750000
vt 0.296875 1.750000
vt 0.117188 1.855469
vt 0.246094 1.855469
vt 0.246094 1.855469
vt 0.117188 1.855469
vt 0.218750 1.902344
vt 0.472656 1.875000
vt 0.539063 1.875000
vt 0.453125 1.835938
vt 0.539063 1.875000
vt 0.566406 1.835938
vt 0.453125 1.835938
vt 0.453125 1.835938
vt 0.566406 1.835938
vt 0.417969 1.746094
vt 0.566406 1.835938
vt 0.613281 1.746094
vt 0.417969 1.746094
vt 0.613281 1.746094
vt 0.632813 1.628906
vt 0.417969 1.746094
vt 0.417969 1.746094
vt 0.632813 1.628906
vt 0.398438 1.628906
vt 0.632813 1.628906
vt 0.625000 1.570313
vt 0.398438 1.628906
vt 0.398438 1.628906
vt 0.625000 1.570313
vt 0.406250 1.570313
vt 0.625000 1.570313
vt 0.574219 1.531250
vt 0.406250 1.570313
vt 0.406250 1.570313
vt 0.574219 1.531250
vt 0.449219 1.531250
vt 0.574219 1.531250
vt 0.515625 1.515625
vt 0.449219 1.531250
vn 0.802840 -0.516969 0.296971
vn 0.802840 -0.516969 0.296971
vn 0.802840 -0.516969 0.296971
vn 0.800578 -0.525074 0.288742
vn 0.800578 -0.525074 0.288742
vn 0.800578 -0.525074 0.288742
vn 0.567224 -0.539872 0.621928
vn 0.567224 -0.539872 0.621928
vn 0.567224 -0.539872 0.621928
vn 0.546096 -0.575478 0.608773
vn 0.546096 -0.575478 0.608773
vn 0.546096 -0.575478 0.608773
vn 0.427982 -0.515455 0.742386
vn 0.427982 -0.515455 0.742386
vn 0.427982 -0.515455 0.742386
vn 0.443685 -0.500350 0.743501
vn 0.443685 -0.500350 0.743501
vn 0.443685 -0.500350 0.743501
vn 0.387570 -0.394077 0.833363
vn 0.387570 -0.394077 0.833363
vn 0.387570 -0.394077 0.833363
vn 0.432528 -0.356113 0.828313
vn 0.432528 -0.356113 0.828313
vn 0.432528 -0.356113 0.828313
vn -0.904175 -0.427144 -0.003896
vn -0.904175 -0.427144 -0.003896
vn -0.904175 -0.427144 -0.003896
vn -0.889256 -0.456260 0.032413
vn -0.889256 -0.456260 0.032413
vn -0.889256 -0.456260 0.032413
vn -0.827328 -0.559785 -0.046571
vn -0.827328 -0.559785 -0.046571
vn -0.827328 -0.559785 -0.046571
vn -0.816283 -0.576899 -0.029504
vn -0.816283 -0.576899 -0.029504
vn -0.816283 -0.576899 -0.029504
vn -0.748260 -0.635826 -0.189292
vn -0.748260 -0.635826 -0.189292
vn -0.748260 -0.635826 -0.189292
vn -0.774485 -0.598602 -0.204568
vn -0.774485 -0.598602 -0.204568
vn -0.774485 -0.598602 -0.204568
vn -0.601394 -0.580829 -0.548601
vn -0.601394 -0.580829 -0.548601
vn -0.601394 -0.580829 -0.548601
vn -0.605612 -0.577185 -0.547807
vn -0.605612 -0.577185 -0.547807
vn -0.605612 -0.577184 -0.547807
vn -0.510299 -0.410332 -0.755792
vn -0.510299 -0.410332 -0.755793
vn -0.510299 -0.410332 -0.755793
vn -0.508319 -0.410978 -0.756775
vn -0.508319 -0.410978 -0.756775
vn -0.508319 -0.410978 -0.756775
vn -0.451437 -0.170523 -0.875858
vn -0.451437 -0.170523 -0.875858
vn -0.451437 -0.170524 -0.875858
vn -0.450786 -0.170347 -0.876227
vn -0.450786 -0.170347 -0.876227
vn -0.450786 -0.170347 -0.876227
vn -0.440531 0.111892 -0.890737
vn -0.440531 0.111892 -0.890737
vn -0.440531 0.111892 -0.890737
vn -0.434370 0.116208 -0.893207
vn -0.434370 0.116208 -0.893207
vn -0.434370 0.116208 -0.893207
vn -0.521937 0.439005 -0.731339
vn -0.521937 0.439005 -0.731339
vn -0.521937 0.439005 -0.731339
vn -0.495010 0.475923 -0.726955
vn -0.495010 0.475923 -0.726955
vn -0.495010 0.475923 -0.726955
vn -0.545905 0.582948 -0.601798
vn -0.545905 0.582947 -0.601798
vn -0.545905 0.582947 -0.601798
vn -0.558779 0.565812 -0.606318
vn -0.558779 0.565812 -0.606318
vn -0.558779 0.565812 -0.606318
vn -0.645496 0.594250 -0.479794
vn -0.645496 0.594250 -0.479794
vn -0.645496 0.594250 -0.479794
vn -0.668465 0.551614 -0.498875
vn -0.668465 0.551614 -0.498875
vn -0.668465 0.551614 -0.498875
vn -0.729173 0.541449 -0.418497
vn -0.729173 0.541449 -0.418497
vn -0.729173 0.541449 -0.418496
vn 0.753874 0.456016 0.472994
vn 0.753874 0.456016 0.472994
vn 0.753874 0.456016 0.472994
vn 0.596349 0.656978 0.461246
vn 0.596349 0.656978 0.461246
vn 0.596349 0.656978 0.461246
vn 0.675366 0.668032 0.312432
vn 0.675366 0.668032 0.312432
vn 0.675366 0.668032 0.312432
vn 0.644365 0.704270 0.297988
vn 0.644365 0.704270 0.297988
vn 0.644365 0.704270 0.297988
vn 0.723853 0.670827 0.161332
vn 0.723853 0.670827 0.161333
vn 0.723853 0.670827 0.161332
vn 0.709382 0.689059 0.148236
vn 0.709382 0.689059 0.148236
vn 0.709382 0.689059 0.148236
vn 0.810782 0.583591 0.045331
vn 0.810782 0.583591 0.045331
vn 0.810782 0.583591 0.045331
vn 0.834446 0.546159 0.073560
vn 0.834446 0.546159 0.073560
vn 0.834446 0.546159 0.073560
vn 0.974016 0.214419 -0.072922
vn 0.974016 0.214419 -0.072922
vn 0.974016 0.214419 -0.072922
vn 0.975821 0.209211 -0.063273
vn 0.975821 0.209211 -0.063273
vn 0.975821 0.209211 -0.063273
vn 0.995758 -0.086596 -0.031112
vn 0.995758 -0.086596 -0.031112
vn 0.995758 -0.086596 -0.031112
vn 0.995759 -0.086678 -0.030826
vn 0.995759 -0.086678 -0.030826
vn 0.995759 -0.086678 -0.030826
vn 0.935777 -0.339829 0.094004
vn 0.935777 -0.339829 0.094004
vn 0.935777 -0.339829 0.094004
vn 0.935807 -0.339575 0.094625
vn 0.935807 -0.339575 0.094625
vn 0.935807 -0.339575 0.094625
vn -0.636888 0.649635 -0.415149
vn -0.636888 0.649635 -0.415149
vn -0.636888 0.649635 -0.415149
vn -0.853962 -0.054817 -0.517440
vn -0.853962 -0.054817 -0.517440
vn -0.853962 -0.054817 -0.517440
vn -0.854570 -0.054123 -0.516509
vn -0.854570 -0.054123 -0.516509
vn -0.854570 -0.054123 -0.516509
vn -0.853869 -0.054493 -0.517628
vn -0.853869 -0.054493 -0.517628
vn -0.853869 -0.054493 -0.517628
vn -0.854028 -0.054295 -0.517385
vn -0.854029 -0.054295 -0.517385
vn -0.854028 -0.054295 -0.517385
vn -0.852987 -0.054732 -0.519055
vn -0.852987 -0.054732 -0.519055
vn -0.852987 -0.054732 -0.519055
vn -0.853593 -0.054130 -0.518120
vn -0.853593 -0.054130 -0.518120
vn -0.853593 -0.054130 -0.518120
vn -0.853760 -0.054141 -0.517845
vn -0.853759 -0.054141 -0.517845
vn -0.853760 -0.054141 -0.517845
vn -0.853709 -0.054200 -0.517922
vn -0.853709 -0.054200 -0.517922
vn -0.853709 -0.054200 -0.517922
vn -0.853718 -0.054093 -0.517919
vn -0.853718 -0.054093 -0.517919
vn -0.853718 -0.054093 -0.517919
vn -0.853793 -0.054060 -0.517798
vn -0.853793 -0.054060 -0.517798
vn -0.853793 -0.054060 -0.517798
vn 0.764513 0.229168 0.602497
vn 0.764513 0.229168 0.602497
vn 0.764513 0.229168 0.602496
vn 0.853607 0.054257 0.518085
vn 0.853607 0.054257 0.518085
vn 0.853607 0.054257 0.518085
vn 0.853782 0.054065 0.517816
vn 0.853782 0.054065 0.517815
vn 0.853782 0.054065 0.517815
vn 0.853505 0.054933 0.518182
vn 0.853505 0.054933 0.518182
vn 0.853505 0.054933 0.518182
vn 0.854038 0.054426 0.517356
vn 0.854038 0.054426 0.517356
vn 0.854038 0.054426 0.517356
vn 0.853526 0.054357 0.518207
vn 0.853526 0.054357 0.518207
vn 0.853526 0.054357 0.518207
vn 0.853301 0.054578 0.518555
vn 0.853301 0.054578 0.518555
vn 0.853301 0.054578 0.518555
vn 0.854029 0.054260 0.517388
vn 0.854029 0.054260 0.517388
vn 0.854029 0.054260 0.517388
vn 0.853703 0.054610 0.517888
vn 0.853703 0.054610 0.517888
vn 0.853703 0.054610 0.517888
vn 0.853655 0.054618 0.517968
vn 0.853655 0.054618 0.517968
vn 0.853655 0.054618 0.517968
vn 0.854165 0.054135 0.517177
vn 0.854165 0.054135 0.517177
vn 0.854165 0.054135 0.517177
s off
g CosmoLeft1:polySurface50polySurface44
usemtl CosmoLeft1:mesh0228mat
f 2/1/1 3/2/2 4/3/3
f 3/4/4 5/5/5 4/6/6
f 4/7/7 5/8/8 6/9/9
f 5/10/10 7/11/11 6/12/12
f 6/13/13 7/14/14 8/15/15
f 7/16/16 9/17/17 8/18/18
f 8/19/19 9/20/20 1/21/21
f 9/22/22 10/23/23 1/24/24
f 12/25/25 13/26/26 1/27/27
f 1/28/28 13/29/29 8/30/30
f 13/31/31 14/32/32 8/33/33
f 8/34/34 14/35/35 6/36/36
f 14/37/37 15/38/38 6/39/39
f 6/40/40 15/41/41 4/42/42
f 15/43/43 16/44/44 4/45/45
f 4/46/46 16/47/47 2/48/48
f 16/49/49 17/50/50 2/51/51
f 2/52/52 17/53/53 18/54/54
f 17/55/55 19/56/56 18/57/57
f 18/58/58 19/59/59 20/60/60
f 19/61/61 21/62/62 20/63/63
f 20/64/64 21/65/65 22/66/66
f 21/67/67 23/68/68 22/69/69
f 22/70/70 23/71/71 24/72/72
f 23/73/73 25/74/74 24/75/75
f 24/76/76 25/77/77 26/78/78
f 25/79/79 27/80/80 26/81/81
f 26/82/82 27/83/83 28/84/84
f 27/85/85 29/86/86 28/87/87
f 29/88/88 30/89/89 28/90/90
f 30/91/91 31/92/92 28/93/93
f 28/94/94 31/95/95 26/96/96
f 31/97/97 32/98/98 26/99/99
f 26/100/100 32/101/101 24/102/102
f 32/103/103 33/104/104 24/105/105
f 24/106/106 33/107/107 22/108/108
f 33/109/109 34/110/110 22/111/111
f 22/112/112 34/113/113 20/114/114
f 34/115/115 35/116/116 20/117/117
f 20/118/118 35/119/119 18/120/120
f 35/121/121 36/122/122 18/123/123
f 18/124/124 36/125/125 2/126/126
f 36/127/127 3/128/128 2/129/129
f 27/130/130 37/131/131 29/132/132
f 17/133/133 16/134/134 19/135/135
f 19/136/136 16/137/137 21/138/138
f 16/139/139 15/140/140 21/141/141
f 21/142/142 15/143/143 23/144/144
f 15/145/145 14/146/146 23/147/147
f 23/148/148 14/149/149 25/150/150
f 14/151/151 13/152/152 25/153/153
f 13/154/154 12/155/155 25/156/156
f 25/157/157 12/158/158 27/159/159
f 27/160/160 12/161/161 37/162/162
f 30/163/163 11/164/164 31/165/165
f 11/166/166 10/167/167 31/168/168
f 31/169/169 10/170/170 32/171/171
f 10/172/172 9/173/173 32/174/174
f 9/175/175 7/176/176 32/177/177
f 32/178/178 7/179/179 33/180/180
f 7/181/181 5/182/182 33/183/183
f 33/184/184 5/185/185 34/186/186
f 5/187/187 3/188/188 34/189/189
f 34/190/190 3/191/191 35/192/192
f 3/193/193 36/194/194 35/195/195
