# This file uses centimeters as units for non-parametric coordinates.

mtllib chimenea.mtl
g default
v -2.066764 5.451363 6.836911
v -1.044796 5.451363 6.836911
v -2.066764 9.546575 6.836911
v -1.044796 9.546575 6.836911
v -2.066763 9.546575 6.092467
v -1.044796 9.546575 6.092467
v -2.066764 5.451363 6.092467
v -1.044796 5.451363 6.092467
v -4.054496 3.953015 6.836911
v 0.384324 3.953015 6.836911
v -2.082911 5.452800 6.836911
v -1.060944 5.452800 6.836911
v -2.082911 5.452800 6.092467
v -1.060944 5.452800 6.092467
v -4.054496 3.953015 6.092467
v 0.384324 3.953015 6.092467
v -4.032687 0.045811 6.836911
v 0.409590 0.045811 6.836911
v -4.032687 3.965252 6.836911
v 0.409590 3.965252 6.836911
v -4.032687 3.965252 6.092467
v 0.409590 3.965252 6.092467
v -4.032687 0.045811 6.092467
v 0.409590 0.045811 6.092467
v -4.054496 3.953015 6.836911
v 0.384324 3.953015 6.836911
v -1.060944 5.452800 6.836911
v -2.082911 5.452800 6.836911
v -4.032687 0.045811 6.836911
v -4.032687 3.965252 6.836911
v -4.032687 0.045811 6.092467
v -4.032687 3.965252 6.092467
v 0.409590 0.045811 6.836911
v 0.409590 3.965252 6.836911
v 0.409590 0.045811 6.092467
v 0.409590 3.965252 6.092467
v -1.044796 5.451363 6.836911
v -1.044796 9.546575 6.836911
v -1.044796 5.451363 6.092467
v -1.044796 9.546575 6.092467
v -2.066764 5.451363 6.836911
v -1.044796 5.451363 6.836911
v -2.066764 9.546575 6.836911
v -1.044796 9.546575 6.836911
v -2.066764 9.546575 6.836911
v -2.066763 9.546575 6.092467
v -2.066764 5.451363 6.092467
v -2.066764 5.451363 6.836911
v -2.082911 5.452800 6.836911
v -2.082911 5.452800 6.092467
v -4.054496 3.953015 6.092467
v -4.054496 3.953015 6.836911
v -1.060944 5.452800 6.836911
v -1.060944 5.452800 6.092467
v 0.384324 3.953015 6.092467
v 0.384324 3.953015 6.836911
v -4.032687 0.045811 6.836911
v 0.409590 0.045811 6.836911
v -4.032687 3.965252 6.836911
v 0.409590 3.965252 6.836911
v -2.066763 9.546575 6.092467
v -1.044796 9.546575 6.092467
vt 0.299993 -0.001572
vt 0.698444 -0.001572
vt 0.299993 0.251572
vt 0.698444 0.251572
vt 0.803128 0.000000
vt 0.803128 0.250000
vt 0.198435 0.000000
vt 0.198435 0.250000
vt 0.297956 0.050314
vt 0.695755 0.039308
vt 0.695755 0.210692
vt 0.297956 0.199686
vt 0.804245 0.039308
vt 0.804245 0.210692
vt 0.202044 0.050314
vt 0.202044 0.199686
vt 0.288522 0.000000
vt 0.706761 0.000000
vt 0.706761 0.250000
vt 0.288522 0.250000
vt 0.793239 0.000000
vt 0.793239 0.250000
vt 0.211478 0.000000
vt 0.211478 0.250000
vt 0.686919 0.488210
vt 0.936919 0.488210
vt 0.845724 0.590412
vt 0.778114 0.590412
vt 0.375000 1.000000
vt 0.375000 0.250000
vt 0.375000 0.750000
vt 0.375000 0.500000
vt 0.625000 1.000000
vt 0.625000 0.250000
vt 0.625000 0.750000
vt 0.625000 0.500000
vt 0.625000 1.000000
vt 0.927903 0.240999
vt 0.625000 0.750000
vt 0.625000 0.500000
vt 0.446665 -0.001572
vt 0.553335 -0.001572
vt 0.446665 0.251572
vt 0.553335 0.251572
vt 0.674758 0.240999
vt 0.375000 0.500000
vt 0.375000 0.750000
vt 0.375000 1.000000
vt 0.375000 0.250000
vt 0.375000 0.500000
vt 0.375000 0.750000
vt 0.375000 1.000000
vt 0.625000 0.250000
vt 0.625000 0.500000
vt 0.625000 0.750000
vt 0.625000 1.000000
vt 0.686904 0.190314
vt 0.936904 0.190314
vt 0.686904 0.440314
vt 0.936904 0.440314
vt 0.676331 0.489427
vt 0.926331 0.489427
vn 0.000000 0.000000 1.000000
vn 0.000000 0.000000 1.000000
vn 0.000000 0.000000 1.000000
vn 0.000000 0.000000 1.000000
vn 0.000000 1.000000 -0.000001
vn 0.000000 1.000000 -0.000001
vn 0.000000 1.000000 -0.000001
vn 0.000000 1.000000 -0.000001
vn 0.000000 0.000000 -1.000000
vn 0.000000 0.000000 -1.000000
vn 0.000000 0.000000 -1.000000
vn 0.000000 0.000000 -1.000000
vn 0.000000 -1.000000 0.000000
vn 0.000000 -1.000000 0.000000
vn 0.000000 -1.000000 0.000000
vn 0.000000 -1.000000 0.000000
vn 1.000000 0.000000 -0.000000
vn 1.000000 0.000000 -0.000000
vn 1.000000 0.000000 -0.000000
vn 1.000000 0.000000 -0.000000
vn -1.000000 0.000000 -0.000000
vn -1.000000 0.000000 -0.000000
vn -1.000000 0.000000 -0.000000
vn -1.000000 0.000000 -0.000000
vn 0.000000 0.000000 1.000000
vn 0.000000 0.000000 1.000000
vn 0.000000 0.000000 1.000000
vn 0.000000 0.000000 1.000000
vn 0.000000 1.000000 -0.000000
vn 0.000000 1.000000 -0.000000
vn 0.000000 1.000000 -0.000000
vn 0.000000 1.000000 -0.000000
vn 0.000000 0.000000 -1.000000
vn 0.000000 0.000000 -1.000000
vn 0.000000 0.000000 -1.000000
vn 0.000000 0.000000 -1.000000
vn 0.000000 -1.000000 0.000000
vn 0.000000 -1.000000 0.000000
vn 0.000000 -1.000000 0.000000
vn 0.000000 -1.000000 0.000000
vn 0.720073 0.693898 0.000000
vn 0.720073 0.693898 0.000000
vn 0.720073 0.693898 0.000000
vn 0.720073 0.693898 0.000000
vn -0.605437 0.795894 0.000001
vn -0.605437 0.795894 0.000001
vn -0.605437 0.795894 0.000001
vn -0.605437 0.795894 0.000001
vn 0.000000 0.000000 1.000000
vn 0.000000 0.000000 1.000000
vn 0.000000 0.000000 1.000000
vn 0.000000 0.000000 1.000000
vn 0.000000 1.000000 -0.000001
vn 0.000000 1.000000 -0.000001
vn 0.000000 1.000000 -0.000001
vn 0.000000 1.000000 -0.000001
vn 0.000000 0.000000 -1.000000
vn 0.000000 0.000000 -1.000000
vn 0.000000 0.000000 -1.000000
vn 0.000000 0.000000 -1.000000
vn 0.000000 -1.000000 0.000000
vn 0.000000 -1.000000 0.000000
vn 0.000000 -1.000000 0.000000
vn 0.000000 -1.000000 0.000000
vn 1.000000 0.000000 -0.000000
vn 1.000000 0.000000 -0.000000
vn 1.000000 0.000000 -0.000000
vn 1.000000 0.000000 -0.000000
vn -1.000000 0.000000 0.000000
vn -1.000000 0.000000 0.000000
vn -1.000000 0.000000 0.000000
vn -1.000000 0.000000 0.000000
s off
g pCube11
usemtl initialShadingGroup
f 41/41/1 42/42/2 44/44/3 43/43/4
f 45/45/5 38/38/6 62/62/7 61/61/8
f 46/46/9 40/40/10 39/39/11 47/47/12
f 47/47/13 39/39/14 37/37/15 48/48/16
f 2/2/17 8/5/18 6/6/19 4/4/20
f 7/7/21 1/1/22 3/3/23 5/8/24
f 25/25/25 26/26/26 27/27/27 28/28/28
f 49/49/29 53/53/30 54/54/31 50/50/32
f 50/50/33 54/54/34 55/55/35 51/51/36
f 51/51/37 55/55/38 56/56/39 52/52/40
f 10/10/41 16/13/42 14/14/43 12/11/44
f 15/15/45 9/9/46 11/12/47 13/16/48
f 57/57/49 58/58/50 60/60/51 59/59/52
f 30/30/53 34/34/54 36/36/55 32/32/56
f 32/32/57 36/36/58 35/35/59 31/31/60
f 31/31/61 35/35/62 33/33/63 29/29/64
f 18/18/65 24/21/66 22/22/67 20/19/68
f 23/23/69 17/17/70 19/20/71 21/24/72
