# This file uses centimeters as units for non-parametric coordinates.

mtllib paredesSegundoPiso.mtl
g default
v 9.800000 -3.000000 6.000000
v 10.000000 -3.000000 6.000000
v 9.800000 3.000000 6.000000
v 10.000000 3.000000 6.000000
v 9.800000 3.000000 -6.000000
v 10.000000 3.000000 -6.000000
v 9.800000 -3.000000 -6.000000
v 10.000000 -3.000000 -6.000000
vt 0.375000 0.000000
vt 0.625000 0.000000
vt 0.375000 0.250000
vt 0.625000 0.250000
vt 0.375000 0.500000
vt 0.625000 0.500000
vt 0.375000 0.750000
vt 0.625000 0.750000
vt 0.375000 1.000000
vt 0.625000 1.000000
vt 0.875000 0.000000
vt 0.875000 0.250000
vt 0.125000 0.000000
vt 0.125000 0.250000
vn 0.000000 0.000000 1.000000
vn 0.000000 0.000000 1.000000
vn 0.000000 0.000000 1.000000
vn 0.000000 0.000000 1.000000
vn 0.000000 1.000000 0.000000
vn 0.000000 1.000000 0.000000
vn 0.000000 1.000000 0.000000
vn 0.000000 1.000000 0.000000
vn 0.000000 0.000000 -1.000000
vn 0.000000 0.000000 -1.000000
vn 0.000000 0.000000 -1.000000
vn 0.000000 0.000000 -1.000000
vn 0.000000 -1.000000 0.000000
vn 0.000000 -1.000000 0.000000
vn 0.000000 -1.000000 0.000000
vn 0.000000 -1.000000 0.000000
vn 1.000000 0.000000 0.000000
vn 1.000000 0.000000 0.000000
vn 1.000000 0.000000 0.000000
vn 1.000000 0.000000 0.000000
vn -1.000000 0.000000 0.000000
vn -1.000000 0.000000 0.000000
vn -1.000000 0.000000 0.000000
vn -1.000000 0.000000 0.000000
s off
g pCube1
usemtl initialShadingGroup
f 1/1/1 2/2/2 4/4/3 3/3/4
f 3/3/5 4/4/6 6/6/7 5/5/8
f 5/5/9 6/6/10 8/8/11 7/7/12
f 7/7/13 8/8/14 2/10/15 1/9/16
f 2/2/17 8/11/18 6/12/19 4/4/20
f 7/13/21 1/1/22 3/3/23 5/14/24
g default
v -5.000000 -3.000000 6.000000
v -4.800000 -3.000000 6.000000
v -5.000000 3.000000 6.000000
v -4.800000 3.000000 6.000000
v -5.000000 3.000000 -6.000000
v -4.800000 3.000000 -6.000000
v -5.000000 -3.000000 -6.000000
v -4.800000 -3.000000 -6.000000
vt 0.375000 0.000000
vt 0.625000 0.000000
vt 0.375000 0.250000
vt 0.625000 0.250000
vt 0.375000 0.500000
vt 0.625000 0.500000
vt 0.375000 0.750000
vt 0.625000 0.750000
vt 0.375000 1.000000
vt 0.625000 1.000000
vt 0.875000 0.000000
vt 0.875000 0.250000
vt 0.125000 0.000000
vt 0.125000 0.250000
vn 0.000000 0.000000 1.000000
vn 0.000000 0.000000 1.000000
vn 0.000000 0.000000 1.000000
vn 0.000000 0.000000 1.000000
vn 0.000000 1.000000 0.000000
vn 0.000000 1.000000 0.000000
vn 0.000000 1.000000 0.000000
vn 0.000000 1.000000 0.000000
vn 0.000000 0.000000 -1.000000
vn 0.000000 0.000000 -1.000000
vn 0.000000 0.000000 -1.000000
vn 0.000000 0.000000 -1.000000
vn 0.000000 -1.000000 0.000000
vn 0.000000 -1.000000 0.000000
vn 0.000000 -1.000000 0.000000
vn 0.000000 -1.000000 0.000000
vn 1.000000 0.000000 0.000000
vn 1.000000 0.000000 0.000000
vn 1.000000 0.000000 0.000000
vn 1.000000 0.000000 0.000000
vn -1.000000 0.000000 0.000000
vn -1.000000 0.000000 0.000000
vn -1.000000 0.000000 0.000000
vn -1.000000 0.000000 0.000000
s off
g pCube2
usemtl initialShadingGroup
f 9/15/25 10/16/26 12/18/27 11/17/28
f 11/17/29 12/18/30 14/20/31 13/19/32
f 13/19/33 14/20/34 16/22/35 15/21/36
f 15/21/37 16/22/38 10/24/39 9/23/40
f 10/16/41 16/25/42 14/26/43 12/18/44
f 15/27/45 9/15/46 11/17/47 13/28/48
g default
v -5.000000 -3.000000 6.000000
v 10.000000 -3.000000 6.000000
v -5.000000 3.000000 6.000000
v 10.000000 3.000000 6.000000
v -5.000000 3.000000 5.800000
v 10.000000 3.000000 5.800000
v -5.000000 -3.000000 5.800000
v 10.000000 -3.000000 5.800000
v -5.000000 2.450250 6.000000
v -5.000000 2.450248 5.800000
v 10.000000 2.450248 5.800000
v 10.000000 2.450250 6.000000
v -5.000000 -2.500899 6.000000
v -5.000000 -2.500899 5.800000
v 10.000000 -2.500899 5.800000
v 10.000000 -2.500899 6.000000
v -3.475835 -3.000000 6.000000
v -3.475835 -2.500899 6.000000
v -3.475835 2.450250 6.000000
v -3.475835 3.000000 6.000000
v -3.475835 3.000000 5.800000
v -3.475835 2.450248 5.800000
v -3.475835 -2.500899 5.800000
v -3.475835 -3.000000 5.800000
v -0.487460 2.450250 6.000000
v -0.487460 -2.500899 6.000000
v -0.487460 -3.000000 6.000000
v -0.487460 -3.000000 5.800000
v -0.487460 -2.500899 5.800000
v -0.487460 2.450248 5.800000
v -0.487460 3.000000 5.800000
v -0.487460 3.000000 6.000000
v 8.526040 2.450250 6.000000
v 8.526040 -2.500899 6.000000
v 8.526040 -3.000000 6.000000
v 8.526040 -3.000000 5.800000
v 8.526040 -2.500899 5.800000
v 8.526040 2.450248 5.800000
v 8.526040 3.000000 5.800000
v 8.526040 3.000000 6.000000
v 5.519415 -3.000000 6.000000
v 5.519415 -2.500899 6.000000
v 5.519415 2.450250 6.000000
v 5.519415 3.000000 6.000000
v 5.519415 3.000000 5.800000
v 5.519415 2.450248 5.800000
v 5.519415 -2.500899 5.800000
v 5.519415 -3.000000 5.800000
v 1.003086 -3.000000 6.000000
v 1.003086 -2.500899 6.000000
v 1.003086 2.450250 6.000000
v 1.003086 3.000000 6.000000
v 1.003086 3.000000 5.800000
v 1.003086 2.450248 5.800000
v 1.003086 -2.500899 5.800000
v 1.003086 -3.000000 5.800000
v 4.009710 -2.500899 6.000000
v 4.009710 -3.000000 6.000000
v 4.009710 -3.000000 5.800000
v 4.009710 -2.500899 5.800000
v 4.009710 2.450248 5.800000
v 4.009710 3.000000 5.800000
v 4.009710 3.000000 6.000000
v 4.009710 2.450250 6.000000
vt 0.375000 0.000000
vt 0.625000 0.000000
vt 0.375000 0.250000
vt 0.625000 0.250000
vt 0.375000 0.500000
vt 0.625000 0.500000
vt 0.375000 0.750000
vt 0.625000 0.750000
vt 0.375000 1.000000
vt 0.625000 1.000000
vt 0.875000 0.000000
vt 0.875000 0.250000
vt 0.125000 0.000000
vt 0.125000 0.250000
vt 0.375000 0.227094
vt 0.125000 0.227094
vt 0.375000 0.522906
vt 0.625000 0.522906
vt 0.875000 0.227094
vt 0.625000 0.227094
vt 0.375000 0.020796
vt 0.125000 0.020796
vt 0.375000 0.729204
vt 0.625000 0.729204
vt 0.875000 0.020796
vt 0.625000 0.020796
vt 0.400403 0.000000
vt 0.400403 1.000000
vt 0.400403 0.020796
vt 0.400403 0.227094
vt 0.400403 0.250000
vt 0.400403 0.500000
vt 0.400403 0.522906
vt 0.400403 0.729204
vt 0.400403 0.750000
vt 0.450209 0.227094
vt 0.450209 0.020796
vt 0.450209 0.000000
vt 0.450209 1.000000
vt 0.450209 0.750000
vt 0.450209 0.729204
vt 0.450209 0.522906
vt 0.450209 0.500000
vt 0.450209 0.250000
vt 0.600434 0.227094
vt 0.600434 0.020796
vt 0.600434 0.000000
vt 0.600434 1.000000
vt 0.600434 0.750000
vt 0.600434 0.729204
vt 0.600434 0.522906
vt 0.600434 0.500000
vt 0.600434 0.250000
vt 0.550324 0.000000
vt 0.550324 1.000000
vt 0.550324 0.020796
vt 0.550324 0.227094
vt 0.550324 0.250000
vt 0.550324 0.500000
vt 0.550324 0.522906
vt 0.550324 0.729204
vt 0.550324 0.750000
vt 0.475051 0.000000
vt 0.475051 1.000000
vt 0.475051 0.020796
vt 0.475051 0.227094
vt 0.475051 0.250000
vt 0.475051 0.500000
vt 0.475051 0.522906
vt 0.475051 0.729204
vt 0.475051 0.750000
vt 0.525162 0.020796
vt 0.525162 0.000000
vt 0.525162 1.000000
vt 0.525162 0.750000
vt 0.525162 0.729204
vt 0.525162 0.522906
vt 0.525162 0.500000
vt 0.525162 0.250000
vt 0.525162 0.227094
vn 0.000000 0.000000 1.000000
vn 0.000000 0.000000 1.000000
vn 0.000000 0.000000 1.000000
vn 0.000000 0.000000 1.000000
vn 0.000000 1.000000 0.000000
vn 0.000000 1.000000 0.000000
vn 0.000000 1.000000 0.000000
vn 0.000000 1.000000 0.000000
vn 0.000000 0.000000 -1.000000
vn 0.000000 0.000000 -1.000000
vn 0.000000 0.000000 -1.000000
vn 0.000000 0.000000 -1.000000
vn 0.000000 -1.000000 0.000000
vn 0.000000 -1.000000 0.000000
vn 0.000000 -1.000000 0.000000
vn 0.000000 -1.000000 0.000000
vn 1.000000 0.000000 0.000000
vn 1.000000 0.000000 0.000000
vn 1.000000 0.000000 0.000000
vn 1.000000 0.000000 0.000000
vn -1.000000 0.000000 0.000000
vn -1.000000 0.000000 0.000000
vn -1.000000 0.000000 0.000000
vn -1.000000 0.000000 0.000000
vn -1.000000 0.000000 0.000000
vn -1.000000 0.000000 0.000000
vn -1.000000 0.000000 0.000000
vn -1.000000 0.000000 0.000000
vn 0.000000 0.000000 -1.000000
vn 0.000000 0.000000 -1.000000
vn 0.000000 0.000000 -1.000000
vn 0.000000 0.000000 -1.000000
vn 1.000000 0.000000 0.000000
vn 1.000000 0.000000 0.000000
vn 1.000000 0.000000 0.000000
vn 1.000000 0.000000 0.000000
vn 0.000000 0.000000 1.000000
vn 0.000000 0.000000 1.000000
vn 0.000000 0.000000 1.000000
vn 0.000000 0.000000 1.000000
vn 0.000000 0.000000 1.000000
vn 0.000000 0.000000 1.000000
vn 0.000000 0.000000 1.000000
vn 0.000000 0.000000 1.000000
vn 0.000000 0.000000 1.000000
vn 0.000000 0.000000 1.000000
vn 0.000000 0.000000 1.000000
vn 0.000000 0.000000 1.000000
vn 0.000000 1.000000 0.000000
vn 0.000000 1.000000 0.000000
vn 0.000000 1.000000 0.000000
vn 0.000000 1.000000 0.000000
vn -0.000000 0.000000 -1.000000
vn 0.000000 0.000000 -1.000000
vn 0.000000 0.000000 -1.000000
vn 0.000000 0.000000 -1.000000
vn -0.000000 0.000000 -1.000000
vn 0.000000 0.000000 -1.000000
vn 0.000000 0.000000 -1.000000
vn 0.000000 0.000000 -1.000000
vn 0.000000 -1.000000 0.000000
vn 0.000000 -1.000000 0.000000
vn 0.000000 -1.000000 0.000000
vn 0.000000 -1.000000 0.000000
vn 0.000000 0.000000 1.000000
vn 0.000000 0.000000 1.000000
vn 0.000000 0.000000 1.000000
vn 0.000000 -1.000000 0.000000
vn 0.000000 -1.000000 0.000000
vn 0.000000 0.000000 -1.000000
vn 0.000000 0.000000 -1.000000
vn 0.000000 0.000000 -1.000000
vn 0.000000 0.000000 -1.000000
vn 0.000000 1.000000 0.000000
vn 0.000000 1.000000 0.000000
vn 0.000000 0.000000 1.000000
vn 0.000000 0.000000 1.000000
vn 0.000000 0.000000 1.000000
vn 0.000000 0.000000 1.000000
vn 0.000000 -1.000000 0.000000
vn 0.000000 -1.000000 0.000000
vn 0.000000 0.000000 -1.000000
vn 0.000000 0.000000 -1.000000
vn 0.000000 0.000000 -1.000000
vn 0.000000 0.000000 -1.000000
vn 0.000000 1.000000 0.000000
vn 0.000000 1.000000 0.000000
vn 0.000000 0.000000 1.000000
vn 0.000000 0.000000 1.000000
vn 0.000000 0.000000 1.000000
vn 0.000000 0.000000 1.000000
vn 0.000000 0.000000 1.000000
vn 0.000000 1.000000 0.000000
vn 0.000000 1.000000 0.000000
vn -0.000000 0.000000 -1.000000
vn 0.000000 0.000000 -1.000000
vn -0.000000 0.000000 -1.000000
vn 0.000000 0.000000 -1.000000
vn 0.000000 -1.000000 0.000000
vn 0.000000 -1.000000 0.000000
vn 0.000000 0.000000 1.000000
vn 0.000000 0.000000 1.000000
vn 0.000000 0.000000 1.000000
vn 0.000000 0.000000 1.000000
vn 0.000000 1.000000 0.000000
vn 0.000000 1.000000 0.000000
vn 0.000000 0.000000 -1.000000
vn 0.000000 0.000000 -1.000000
vn 0.000000 0.000000 -1.000000
vn 0.000000 0.000000 -1.000000
vn 0.000000 -1.000000 0.000000
vn 0.000000 -1.000000 0.000000
s 1
g pCube3
usemtl initialShadingGroup
f 17/29/49 33/55/50 34/57/51 29/49/52
s 2
f 19/31/53 36/59/54 37/60/55 21/33/56
s 3
f 30/51/57 39/62/58 40/63/59 23/35/60
s 4
f 23/35/61 40/63/62 33/56/63 17/37/64
s 5
f 18/30/65 24/39/66 31/53/67 32/54/68
s 6
f 23/41/69 17/29/70 29/49/71 30/50/72
f 26/44/73 25/43/74 19/31/75 21/42/76
s 3
f 21/33/77 37/60/78 38/61/79 26/45/80
s 5
f 28/48/81 27/47/82 22/40/83 20/32/84
s 1
f 25/43/85 35/58/86 36/59/87 19/31/88
s 6
f 30/50/72 29/49/71 25/43/74 26/44/73
s 3
f 26/45/80 38/61/79 39/62/58 30/51/57
s 5
f 32/54/68 31/53/67 27/47/82 28/48/81
s 1
f 29/49/52 34/57/51 35/58/86 25/43/85
f 50/74/89 51/75/90 18/30/91 32/54/92
f 49/73/93 50/74/89 32/54/92 28/48/94
f 56/81/95 49/73/93 28/48/94 20/32/96
s 2
f 55/80/97 56/81/98 20/32/99 22/34/100
s 3
f 54/79/101 55/80/102 22/34/103 27/46/104
f 53/78/105 54/79/101 27/46/104 31/52/106
f 52/77/107 53/78/105 31/52/106 24/36/108
s 4
f 51/76/109 52/77/110 24/36/111 18/38/112
s 1
f 35/58/86 34/57/51 42/65/113 41/64/114
f 34/57/51 33/55/50 43/66/115 42/65/113
s 4
f 33/56/63 40/63/62 44/68/116 43/67/117
s 3
f 40/63/59 39/62/58 45/69/118 44/68/119
f 39/62/58 38/61/79 46/70/120 45/69/118
f 38/61/79 37/60/78 47/71/121 46/70/120
s 2
f 37/60/55 36/59/54 48/72/122 47/71/123
s 1
f 36/59/87 35/58/86 41/64/114 48/72/124
f 41/64/114 42/65/113 66/93/125 67/94/126
f 42/65/113 43/66/115 65/91/127 66/93/125
s 4
f 43/67/117 44/68/116 72/99/128 65/92/129
s 3
f 44/68/119 45/69/118 71/98/130 72/99/131
f 45/69/118 46/70/120 70/97/132 71/98/130
f 46/70/120 47/71/121 69/96/133 70/97/132
s 2
f 47/71/123 48/72/122 68/95/134 69/96/135
s 1
f 48/72/124 41/64/114 67/94/126 68/95/136
f 58/84/137 57/82/138 51/75/90 50/74/89
f 59/85/139 58/84/137 50/74/89 49/73/93
f 60/86/140 59/85/139 49/73/93 56/81/95
s 2
f 61/87/141 60/86/142 56/81/98 55/80/97
s 3
f 62/88/143 61/87/144 55/80/102 54/79/101
f 63/89/145 62/88/143 54/79/101 53/78/105
f 64/90/146 63/89/145 53/78/105 52/77/107
s 4
f 57/83/147 64/90/148 52/77/110 51/76/109
s 1
f 73/100/149 74/101/150 57/82/138 58/84/137
f 80/108/151 73/100/149 58/84/137 59/85/139
f 79/107/152 80/108/151 59/85/139 60/86/140
s 2
f 78/106/153 79/107/154 60/86/142 61/87/141
s 3
f 77/105/155 78/106/156 61/87/144 62/88/143
f 76/104/157 77/105/155 62/88/143 63/89/145
f 75/103/158 76/104/157 63/89/145 64/90/146
s 4
f 74/102/159 75/103/160 64/90/148 57/83/147
s 1
f 66/93/125 65/91/127 74/101/150 73/100/149
s 4
f 65/92/129 72/99/128 75/103/160 74/102/159
s 3
f 72/99/131 71/98/130 76/104/157 75/103/158
f 71/98/130 70/97/132 77/105/155 76/104/157
f 70/97/132 69/96/133 78/106/156 77/105/155
s 2
f 69/96/135 68/95/134 79/107/154 78/106/153
s 1
f 68/95/136 67/94/126 80/108/151 79/107/152
f 67/94/126 66/93/125 73/100/149 80/108/151
g default
v -5.000000 -3.000000 -5.800000
v 10.000000 -3.000000 -5.800000
v -5.000000 3.000000 -5.800000
v 10.000000 3.000000 -5.800000
v -5.000000 3.000000 -6.000000
v 10.000000 3.000000 -6.000000
v -5.000000 -3.000000 -6.000000
v 10.000000 -3.000000 -6.000000
v 8.549995 -3.000000 -5.800000
v 8.549995 3.000000 -5.800000
v 8.549995 3.000000 -6.000000
v 8.549995 -3.000000 -6.000000
v 5.478861 -3.000000 -5.800000
v 5.478861 3.000000 -5.800000
v 5.478861 3.000000 -6.000000
v 5.478861 -3.000000 -6.000000
v 3.976256 -3.000000 -5.800000
v 3.976256 3.000000 -5.800000
v 3.976256 3.000000 -6.000000
v 3.976256 -3.000000 -6.000000
v 0.997386 -3.000000 -5.800000
v 0.997386 3.000000 -5.800000
v 0.997386 3.000000 -6.000000
v 0.997386 -3.000000 -6.000000
v -0.505223 -3.000000 -5.800000
v -0.505223 3.000000 -5.800000
v -0.505223 3.000000 -6.000000
v -0.505223 -3.000000 -6.000000
v -3.576351 -3.000000 -5.800000
v -3.576351 3.000000 -5.800000
v -3.576351 3.000000 -6.000000
v -3.576351 -3.000000 -6.000000
v -5.000000 2.473170 -5.800000
v -5.000000 2.473169 -6.000000
v -3.576351 2.473169 -6.000000
v -0.505223 2.473169 -6.000000
v 0.997386 2.473169 -6.000000
v 3.976256 2.473169 -6.000000
v 5.478861 2.473169 -6.000000
v 8.549995 2.473169 -6.000000
v 10.000000 2.473169 -6.000000
v 10.000000 2.473170 -5.800000
v 8.549995 2.473170 -5.800000
v 5.478861 2.473170 -5.800000
v 3.976256 2.473170 -5.800000
v 0.997386 2.473170 -5.800000
v -0.505223 2.473170 -5.800000
v -3.576351 2.473170 -5.800000
v -5.000000 -2.503147 -5.800000
v -5.000000 -2.503146 -6.000000
v -3.576351 -2.503146 -6.000000
v -0.505223 -2.503146 -6.000000
v 0.997386 -2.503146 -6.000000
v 3.976256 -2.503146 -6.000000
v 5.478861 -2.503146 -6.000000
v 8.549995 -2.503146 -6.000000
v 10.000000 -2.503146 -6.000000
v 10.000000 -2.503147 -5.800000
v 8.549995 -2.503147 -5.800000
v 5.478862 -2.503147 -5.800000
v 3.976256 -2.503147 -5.800000
v 0.997386 -2.503147 -5.800000
v -0.505223 -2.503147 -5.800000
v -3.576352 -2.503147 -5.800000
vt 0.375000 0.000000
vt 0.625000 0.000000
vt 0.375000 0.250000
vt 0.625000 0.250000
vt 0.375000 0.500000
vt 0.625000 0.500000
vt 0.375000 0.750000
vt 0.625000 0.750000
vt 0.375000 1.000000
vt 0.625000 1.000000
vt 0.875000 0.000000
vt 0.875000 0.250000
vt 0.125000 0.000000
vt 0.125000 0.250000
vt 0.600833 0.000000
vt 0.600833 1.000000
vt 0.600833 0.250000
vt 0.600833 0.500000
vt 0.600833 0.750000
vt 0.549648 0.000000
vt 0.549648 1.000000
vt 0.549648 0.250000
vt 0.549648 0.500000
vt 0.549648 0.750000
vt 0.524604 0.000000
vt 0.524604 1.000000
vt 0.524604 0.250000
vt 0.524604 0.500000
vt 0.524604 0.750000
vt 0.474956 0.000000
vt 0.474956 1.000000
vt 0.474956 0.250000
vt 0.474956 0.500000
vt 0.474956 0.750000
vt 0.449913 0.000000
vt 0.449913 1.000000
vt 0.449913 0.250000
vt 0.449913 0.500000
vt 0.449913 0.750000
vt 0.398727 0.000000
vt 0.398727 1.000000
vt 0.398727 0.250000
vt 0.398727 0.500000
vt 0.398727 0.750000
vt 0.375000 0.228049
vt 0.125000 0.228049
vt 0.375000 0.521951
vt 0.398727 0.521951
vt 0.449913 0.521951
vt 0.474956 0.521951
vt 0.524604 0.521951
vt 0.549648 0.521951
vt 0.600833 0.521951
vt 0.625000 0.521951
vt 0.875000 0.228049
vt 0.625000 0.228049
vt 0.600833 0.228049
vt 0.549648 0.228049
vt 0.524604 0.228049
vt 0.474956 0.228049
vt 0.449913 0.228049
vt 0.398727 0.228049
vt 0.375000 0.020702
vt 0.125000 0.020702
vt 0.375000 0.729298
vt 0.398727 0.729298
vt 0.449913 0.729298
vt 0.474956 0.729298
vt 0.524604 0.729298
vt 0.549648 0.729298
vt 0.600833 0.729298
vt 0.625000 0.729298
vt 0.875000 0.020702
vt 0.625000 0.020702
vt 0.600833 0.020702
vt 0.549648 0.020702
vt 0.524604 0.020702
vt 0.474956 0.020702
vt 0.449913 0.020702
vt 0.398728 0.020702
vn 0.000000 0.000000 1.000000
vn 0.000000 0.000000 1.000000
vn 0.000000 0.000000 1.000000
vn 0.000000 0.000000 1.000000
vn 0.000000 1.000000 0.000000
vn 0.000000 1.000000 0.000000
vn 0.000000 1.000000 0.000000
vn 0.000000 1.000000 0.000000
vn 0.000000 0.000000 -1.000000
vn 0.000000 0.000000 -1.000000
vn 0.000000 0.000000 -1.000000
vn 0.000000 0.000000 -1.000000
vn 0.000000 -1.000000 0.000000
vn 0.000000 -1.000000 0.000000
vn 0.000000 -1.000000 0.000000
vn 0.000000 -1.000000 0.000000
vn 1.000000 0.000000 0.000000
vn 1.000000 0.000000 0.000000
vn 1.000000 0.000000 0.000000
vn 1.000000 0.000000 0.000000
vn -1.000000 0.000000 0.000000
vn -1.000000 0.000000 0.000000
vn -1.000000 0.000000 0.000000
vn -1.000000 0.000000 0.000000
vn 0.000000 0.000000 1.000000
vn 0.000000 0.000000 1.000000
vn 0.000000 0.000000 1.000000
vn 0.000000 0.000000 1.000000
vn 0.000000 1.000000 0.000000
vn 0.000000 1.000000 0.000000
vn 0.000000 1.000000 0.000000
vn 0.000000 1.000000 0.000000
vn 0.000000 0.000000 -1.000000
vn 0.000000 0.000000 -1.000000
vn 0.000000 0.000000 -1.000000
vn 0.000000 0.000000 -1.000000
vn 0.000000 -1.000000 0.000000
vn 0.000000 -1.000000 0.000000
vn 0.000000 -1.000000 0.000000
vn 0.000000 -1.000000 0.000000
vn 0.000000 0.000000 1.000000
vn 0.000000 0.000000 1.000000
vn 0.000000 1.000000 0.000000
vn 0.000000 1.000000 0.000000
vn 0.000000 0.000000 -1.000000
vn 0.000000 0.000000 -1.000000
vn 0.000000 -1.000000 0.000000
vn 0.000000 -1.000000 0.000000
vn 0.000000 0.000000 1.000000
vn 0.000000 0.000000 1.000000
vn 0.000000 1.000000 0.000000
vn 0.000000 1.000000 0.000000
vn 0.000000 0.000000 -1.000000
vn 0.000000 0.000000 -1.000000
vn 0.000000 -1.000000 0.000000
vn 0.000000 -1.000000 0.000000
vn 0.000000 0.000000 1.000000
vn 0.000000 0.000000 1.000000
vn 0.000000 1.000000 0.000000
vn 0.000000 1.000000 0.000000
vn 0.000000 0.000000 -1.000000
vn 0.000000 0.000000 -1.000000
vn 0.000000 -1.000000 0.000000
vn 0.000000 -1.000000 0.000000
vn 0.000000 0.000000 1.000000
vn 0.000000 0.000000 1.000000
vn 0.000000 1.000000 0.000000
vn 0.000000 1.000000 0.000000
vn 0.000000 0.000000 -1.000000
vn 0.000000 0.000000 -1.000000
vn 0.000000 -1.000000 0.000000
vn 0.000000 -1.000000 0.000000
vn -1.000000 0.000000 0.000000
vn -1.000000 0.000000 0.000000
vn -1.000000 0.000000 0.000000
vn -1.000000 0.000000 0.000000
vn 0.000000 0.000000 -1.000000
vn 0.000000 0.000000 -1.000000
vn 0.000000 0.000000 -1.000000
vn 0.000000 0.000000 -1.000000
vn 0.000000 0.000000 -1.000000
vn 0.000000 0.000000 -1.000000
vn 0.000000 0.000000 -1.000000
vn 0.000000 0.000000 -1.000000
vn 0.000000 0.000000 -1.000000
vn 0.000000 0.000000 -1.000000
vn 0.000000 0.000000 -1.000000
vn 0.000000 0.000000 -1.000000
vn 0.000000 0.000000 -1.000000
vn 0.000000 0.000000 -1.000000
vn 0.000000 0.000000 -1.000000
vn 0.000000 0.000000 -1.000000
vn 1.000000 0.000000 0.000000
vn 1.000000 0.000000 0.000000
vn 1.000000 0.000000 0.000000
vn 1.000000 0.000000 0.000000
vn 0.000000 0.000000 1.000000
vn 0.000000 0.000000 1.000000
vn 0.000000 0.000000 1.000000
vn 0.000000 0.000000 1.000000
vn 0.000000 0.000000 1.000000
vn 0.000000 0.000000 1.000000
vn 0.000000 0.000000 1.000000
vn 0.000000 0.000000 1.000000
vn 0.000000 0.000000 1.000000
vn 0.000000 0.000000 1.000000
vn 0.000000 0.000000 1.000000
vn 0.000000 0.000000 1.000000
vn 0.000000 0.000000 1.000000
vn 0.000000 0.000000 1.000000
vn 0.000000 0.000000 1.000000
vn 0.000000 0.000000 1.000000
s 1
g pCube4
usemtl initialShadingGroup
f 81/109/161 109/148/162 144/188/163 129/171/164
s 2
f 83/111/165 110/150/166 111/151/167 85/113/168
s 3
f 130/173/169 131/174/170 112/152/171 87/115/172
s 4
f 87/115/173 112/152/174 109/149/175 81/117/176
s 5
f 82/110/177 88/119/178 137/181/179 138/182/180
s 6
f 87/121/181 81/109/182 129/171/183 130/172/184
s 1
f 138/182/185 139/183/186 89/123/187 82/110/188
s 2
f 91/126/189 90/125/190 84/112/191 86/114/192
s 3
f 92/127/193 136/179/194 137/180/195 88/116/196
s 4
f 89/124/197 92/127/198 88/116/199 82/118/200
s 1
f 139/183/186 140/184/201 93/128/202 89/123/187
s 2
f 95/131/203 94/130/204 90/125/190 91/126/189
s 3
f 96/132/205 135/178/206 136/179/194 92/127/193
s 4
f 93/129/207 96/132/208 92/127/198 89/124/197
s 1
f 140/184/201 141/185/209 97/133/210 93/128/202
s 2
f 99/136/211 98/135/212 94/130/204 95/131/203
s 3
f 100/137/213 134/177/214 135/178/206 96/132/205
s 4
f 97/134/215 100/137/216 96/132/208 93/129/207
s 1
f 141/185/209 142/186/217 101/138/218 97/133/210
s 2
f 103/141/219 102/140/220 98/135/212 99/136/211
s 3
f 104/142/221 133/176/222 134/177/214 100/137/213
s 4
f 101/139/223 104/142/224 100/137/216 97/134/215
s 1
f 142/186/217 143/187/225 105/143/226 101/138/218
s 2
f 107/146/227 106/145/228 102/140/220 103/141/219
s 3
f 108/147/229 132/175/230 133/176/222 104/142/221
s 4
f 105/144/231 108/147/232 104/142/224 101/139/223
s 1
f 143/187/225 144/188/163 109/148/162 105/143/226
s 2
f 111/151/167 110/150/166 106/145/228 107/146/227
s 3
f 112/152/171 131/174/170 132/175/230 108/147/229
s 4
f 109/149/175 112/152/174 108/147/232 105/144/231
s 6
f 114/154/233 113/153/234 83/111/235 85/122/236
s 3
f 85/113/237 111/151/238 115/156/239 114/155/240
f 116/157/241 115/156/239 111/151/238 107/146/242
f 117/158/243 116/157/241 107/146/242 103/141/244
f 118/159/245 117/158/243 103/141/244 99/136/246
f 119/160/247 118/159/245 99/136/246 95/131/248
f 120/161/249 119/160/247 95/131/248 91/126/250
f 121/162/251 120/161/249 91/126/250 86/114/252
s 5
f 122/164/253 121/163/254 86/120/255 84/112/256
s 1
f 90/125/257 123/165/258 122/164/259 84/112/260
f 94/130/261 124/166/262 123/165/258 90/125/257
f 98/135/263 125/167/264 124/166/262 94/130/261
f 102/140/265 126/168/266 125/167/264 98/135/263
f 106/145/267 127/169/268 126/168/266 102/140/265
f 110/150/269 128/170/270 127/169/268 106/145/267
f 113/153/271 128/170/270 110/150/269 83/111/272
s 6
f 130/172/184 129/171/183 113/153/234 114/154/233
s 3
f 114/155/240 115/156/239 131/174/170 130/173/169
f 132/175/230 131/174/170 115/156/239 116/157/241
f 133/176/222 132/175/230 116/157/241 117/158/243
f 134/177/214 133/176/222 117/158/243 118/159/245
f 135/178/206 134/177/214 118/159/245 119/160/247
f 136/179/194 135/178/206 119/160/247 120/161/249
f 137/180/195 136/179/194 120/161/249 121/162/251
s 5
f 138/182/180 137/181/179 121/163/254 122/164/253
s 1
f 122/164/259 123/165/258 139/183/186 138/182/185
f 123/165/258 124/166/262 140/184/201 139/183/186
f 124/166/262 125/167/264 141/185/209 140/184/201
f 125/167/264 126/168/266 142/186/217 141/185/209
f 126/168/266 127/169/268 143/187/225 142/186/217
f 127/169/268 128/170/270 144/188/163 143/187/225
f 129/171/164 144/188/163 128/170/270 113/153/271
