# This file uses centimeters as units for non-parametric coordinates.

mtllib Computadora.mtl
g default
v 7.950699 8.292095 0.897896
v 7.378697 8.292095 0.925121
v 7.960730 8.292095 1.108661
v 7.388728 8.292095 1.135884
v 7.950699 8.306884 0.897896
v 7.378697 8.306884 0.925121
v 7.960730 8.320200 1.108661
v 7.388728 8.320200 1.135884
vt 0.346062 0.190760
vt 0.346062 0.180258
vt 0.356564 0.180258
vt 0.356564 0.190760
vt 0.169062 0.096951
vt 0.439373 0.096951
vt 0.439373 0.193013
vt 0.169062 0.193013
vt 0.356779 0.190975
vt 0.345846 0.190975
vt 0.356779 0.180042
vt 0.345846 0.180042
vn 0.000000 -1.000000 0.000000
vn 0.000000 -1.000000 0.000000
vn 0.000000 -1.000000 0.000000
vn 0.000000 -1.000000 0.000000
vn -0.002995 0.998014 -0.062918
vn -0.002995 0.998014 -0.062918
vn -0.002995 0.998014 -0.062918
vn -0.002995 0.998014 -0.062918
vn -0.047540 0.000002 -0.998869
vn -0.047540 0.000002 -0.998869
vn -0.047540 0.000002 -0.998869
vn -0.047540 0.000002 -0.998869
vn -0.998869 0.000000 0.047540
vn -0.998869 0.000000 0.047540
vn -0.998869 0.000000 0.047540
vn -0.998869 0.000000 0.047540
vn 0.047540 -0.000001 0.998869
vn 0.047540 -0.000001 0.998869
vn 0.047540 -0.000001 0.998869
vn 0.047540 -0.000001 0.998869
vn 0.998869 0.000000 -0.047540
vn 0.998869 0.000000 -0.047540
vn 0.998869 0.000000 -0.047540
vn 0.998869 0.000000 -0.047540
s off
g Computadora:KEYBOARD
usemtl Computadora:COMP1SG
f 1/1/1 3/2/2 4/3/3 2/4/4
f 5/5/5 6/6/6 8/7/7 7/8/8
f 1/1/9 2/4/10 6/9/11 5/10/12
f 2/4/13 4/3/14 8/11/15 6/9/16
f 4/3/17 3/2/18 7/12/19 8/11/20
f 3/2/21 1/1/22 5/10/23 7/12/24
g default
v 8.622225 8.293798 0.738901
v 8.099816 8.293798 0.672209
v 8.567573 8.290758 1.267592
v 8.019892 8.290758 1.197673
v 8.622225 8.419447 0.738901
v 8.099816 8.419447 0.672209
v 8.567573 8.422487 1.267592
v 8.019892 8.422487 1.197673
v 8.629082 8.290758 0.785781
v 8.081400 8.290758 0.715862
v 8.081400 8.422487 0.715862
v 8.629082 8.422487 0.785781
vt 0.116793 0.255132
vt 0.125807 0.255132
vt 0.125599 0.255340
vt 0.117001 0.255340
vt 0.125599 0.263938
vt 0.125807 0.264146
vt 0.116793 0.264146
vt 0.117001 0.263938
vt 0.003105 0.251793
vt 0.241216 0.251793
vt 0.241216 0.302305
vt 0.003105 0.302306
vt 0.119903 0.197666
vt 0.336451 0.197666
vt 0.336451 0.247872
vt 0.119903 0.247872
vt 0.056503 0.268868
vt 0.056503 0.280926
vt 0.056503 0.280926
vt 0.056503 0.268868
vt 0.068562 0.268868
vt 0.068562 0.268868
vt 0.068562 0.280926
vt 0.068562 0.280926
vn 0.008417 -0.997787 -0.065961
vn 0.008417 -0.997787 -0.065961
vn 0.008417 -0.997787 -0.065961
vn 0.008415 -0.997790 -0.065915
vn 0.008415 -0.997790 -0.065915
vn 0.008415 -0.997790 -0.065916
vn 0.008415 0.997790 -0.065916
vn 0.008415 0.997790 -0.065916
vn 0.008415 0.997790 -0.065916
vn 0.008415 0.997790 -0.065916
vn 0.008415 0.997790 -0.065916
vn 0.008415 0.997790 -0.065916
vn 0.126634 0.000000 -0.991949
vn 0.126634 0.000000 -0.991949
vn 0.126634 0.000000 -0.991949
vn 0.126634 0.000000 -0.991949
vn 0.126634 0.000000 -0.991949
vn 0.126634 0.000000 -0.991949
vn -0.921378 0.000000 -0.388667
vn -0.921378 0.000000 -0.388667
vn -0.921378 0.000000 -0.388667
vn -0.921378 0.000000 -0.388667
vn -0.921378 0.000000 -0.388667
vn -0.921378 0.000000 -0.388667
vn -0.126634 0.000000 0.991949
vn -0.126634 0.000000 0.991949
vn -0.126634 0.000000 0.991949
vn -0.126634 0.000000 0.991949
vn -0.126634 0.000000 0.991949
vn -0.126634 0.000000 0.991949
vn 0.991949 0.000000 0.126634
vn 0.991949 0.000000 0.126634
vn 0.991949 0.000000 0.126634
vn 0.991949 0.000000 0.126634
vn 0.991949 0.000000 0.126634
vn 0.991949 0.000000 0.126634
vn 0.000000 -1.000000 0.000000
vn 0.000000 -1.000000 0.000000
vn 0.000000 -1.000000 0.000000
vn 0.000000 -1.000000 0.000000
vn 0.000000 -1.000000 0.000000
vn 0.000000 -1.000000 0.000000
vn 0.000000 1.000000 0.000000
vn 0.000000 1.000000 0.000000
vn 0.000000 1.000000 0.000000
vn 0.000000 1.000000 0.000000
vn 0.000000 1.000000 0.000000
vn 0.000000 1.000000 0.000000
vn -0.991949 0.000000 -0.126634
vn -0.991949 0.000000 -0.126634
vn -0.991949 0.000000 -0.126634
vn -0.991949 0.000000 -0.126634
vn -0.991949 0.000000 -0.126634
vn -0.991949 0.000000 -0.126634
vn 0.989472 0.000000 -0.144724
vn 0.989472 0.000000 -0.144724
vn 0.989472 0.000000 -0.144724
vn 0.989472 0.000000 -0.144724
vn 0.989472 0.000000 -0.144724
vn 0.989472 0.000000 -0.144724
s off
g Computadora:COMP1
usemtl Computadora:COMP1SG
f 17/13/25 18/14/26 10/15/27
f 10/15/28 9/16/29 17/13/30
f 14/17/31 19/18/32 20/19/33
f 20/19/34 13/20/35 14/17/36
f 9/21/37 10/22/38 14/23/39
f 14/23/40 13/24/41 9/21/42
f 18/14/43 19/18/44 14/17/45
f 14/17/46 10/15/47 18/14/48
f 12/25/49 11/26/50 15/27/51
f 15/27/52 16/28/53 12/25/54
f 17/29/55 20/30/56 15/31/57
f 15/31/58 11/32/59 17/29/60
f 11/32/61 12/33/62 18/34/63
f 18/34/64 17/29/65 11/32/66
f 16/35/67 15/31/68 20/30/69
f 20/30/70 19/36/71 16/35/72
f 12/33/73 16/35/74 19/36/75
f 19/36/76 18/34/77 12/33/78
f 9/16/79 13/20/80 20/19/81
f 20/19/82 17/13/83 9/16/84
g default
v 7.258502 8.292095 0.837164
v 7.185454 8.292095 0.847071
v 7.279215 8.292095 0.911448
v 7.185278 8.292095 0.924189
v 7.288067 8.292095 0.976703
v 7.194131 8.292095 0.989446
v 7.258502 8.314188 0.837164
v 7.176409 8.316263 0.858805
v 7.279215 8.329423 0.911446
v 7.185278 8.329423 0.924189
v 7.288084 8.316263 0.976833
v 7.205992 8.314188 0.998474
v 7.270363 8.292095 0.846192
v 7.176426 8.292095 0.858933
v 7.279039 8.292095 0.988564
v 7.205992 8.292095 0.998474
v 7.270346 8.316263 0.846062
v 7.185454 8.314188 0.847071
v 7.279039 8.314188 0.988564
v 7.194148 8.316263 0.989574
vt 0.212467 0.041863
vt 0.212162 0.035785
vt 0.226179 0.035785
vt 0.225874 0.041863
vt 0.224345 0.042836
vt 0.213996 0.042836
vt 0.212467 0.029707
vt 0.213996 0.028734
vt 0.224345 0.028734
vt 0.225874 0.029707
vt 0.203256 0.022726
vt 0.228947 0.022726
vt 0.232621 0.026830
vt 0.232622 0.052849
vt 0.199583 0.052850
vt 0.199583 0.026831
vt 0.232622 0.078868
vt 0.228949 0.082973
vt 0.203258 0.082974
vt 0.199584 0.078869
vt 0.203256 0.015877
vt 0.228947 0.015877
vt 0.239250 0.025705
vt 0.242850 0.051034
vt 0.242002 0.052886
vt 0.243657 0.078122
vt 0.236843 0.078507
vt 0.230880 0.053181
vt 0.228949 0.089822
vt 0.203258 0.089822
vt 0.189955 0.077728
vt 0.193782 0.053737
vt 0.204075 0.053409
vt 0.196625 0.078339
vt 0.189355 0.051036
vt 0.192953 0.025706
vt 0.238311 0.020259
vt 0.232258 0.021333
vt 0.199945 0.021334
vt 0.193892 0.020260
vt 0.234606 0.089822
vt 0.234581 0.082330
vt 0.189985 0.083163
vt 0.196091 0.083767
vn 0.000000 -1.000000 0.000000
vn 0.000000 -1.000000 0.000000
vn 0.000000 -1.000000 0.000000
vn 0.000000 -1.000000 0.000000
vn 0.000000 -1.000000 0.000000
vn 0.000000 -1.000000 0.000000
vn 0.000000 -1.000000 0.000000
vn 0.000000 -1.000000 0.000000
vn 0.000000 -1.000000 0.000000
vn 0.000000 -1.000000 0.000000
vn 0.000000 -1.000000 0.000000
vn 0.000000 -1.000000 0.000000
vn 0.000000 -1.000000 0.000000
vn 0.000000 -1.000000 0.000000
vn 0.000000 -1.000000 0.000000
vn 0.000000 -1.000000 0.000000
vn 0.000000 -1.000000 0.000000
vn 0.000000 -1.000000 0.000000
vn 0.000000 -1.000000 0.000000
vn 0.000000 -1.000000 0.000000
vn 0.000000 -1.000000 0.000000
vn 0.000000 -1.000000 0.000000
vn 0.000000 -1.000000 0.000000
vn 0.000000 -1.000000 0.000000
vn -0.026291 0.980686 -0.193816
vn -0.026290 0.980686 -0.193815
vn -0.026291 0.980686 -0.193816
vn -0.026291 0.980686 -0.193816
vn -0.026291 0.980686 -0.193816
vn -0.000320 0.999997 -0.002353
vn -0.026291 0.980686 -0.193816
vn -0.000320 0.999997 -0.002353
vn 0.000320 0.999997 0.002353
vn -0.026292 0.980686 -0.193816
vn -0.026291 0.980686 -0.193816
vn 0.000320 0.999997 0.002353
vn -0.000320 0.999997 -0.002353
vn 0.026292 0.980686 0.193816
vn 0.026291 0.980686 0.193816
vn 0.000320 0.999997 0.002353
vn -0.000320 0.999997 -0.002353
vn 0.026291 0.980686 0.193816
vn 0.026291 0.980686 0.193816
vn 0.026291 0.980685 0.193818
vn 0.026291 0.980685 0.193817
vn 0.000320 0.999997 0.002353
vn 0.026291 0.980686 0.193816
vn 0.026291 0.980685 0.193817
vn -0.134416 0.000000 -0.990925
vn -0.134416 0.000000 -0.990925
vn -0.134416 0.000000 -0.990925
vn -0.134416 0.000000 -0.990925
vn -0.134416 0.000000 -0.990925
vn -0.134416 0.000000 -0.990925
vn -0.990925 -0.000005 0.134418
vn -0.990925 -0.000001 0.134416
vn -0.990925 -0.000001 0.134416
vn -0.990925 -0.000001 0.134416
vn -0.990925 -0.000007 0.134419
vn -0.990925 -0.000005 0.134418
vn -0.990925 -0.000001 0.134416
vn -0.990925 -0.000007 0.134418
vn -0.990925 -0.000005 0.134417
vn -0.990925 -0.000005 0.134417
vn -0.990925 -0.000001 0.134416
vn -0.990925 -0.000001 0.134416
vn 0.134417 0.000000 0.990925
vn 0.134417 0.000000 0.990925
vn 0.134417 0.000000 0.990925
vn 0.134417 0.000000 0.990925
vn 0.134417 0.000000 0.990925
vn 0.134417 0.000000 0.990925
vn 0.990925 0.000000 -0.134416
vn 0.990925 0.000000 -0.134417
vn 0.990925 0.000000 -0.134417
vn 0.990925 0.000000 -0.134417
vn 0.990925 0.000001 -0.134416
vn 0.990925 0.000000 -0.134416
vn 0.990925 0.000000 -0.134417
vn 0.990925 0.000004 -0.134415
vn 0.990925 0.000003 -0.134416
vn 0.990925 0.000003 -0.134416
vn 0.990925 0.000000 -0.134417
vn 0.990925 0.000000 -0.134417
vn -0.794452 -0.002518 -0.607322
vn -0.795734 -0.003818 -0.605634
vn -0.793381 -0.001437 -0.608724
vn -0.793381 -0.001437 -0.608724
vn -0.791952 0.000000 -0.610583
vn -0.794452 -0.002518 -0.607322
vn 0.602667 -0.002521 -0.797989
vn 0.601110 -0.003834 -0.799157
vn 0.603962 -0.001426 -0.797012
vn 0.603962 -0.001426 -0.797012
vn 0.605646 0.000000 -0.795734
vn 0.602667 -0.002521 -0.797989
vn -0.603957 -0.001428 0.797015
vn -0.605643 0.000000 0.795736
vn -0.602660 -0.002524 0.797994
vn -0.602660 -0.002524 0.797994
vn -0.601102 -0.003840 0.799163
vn -0.603957 -0.001428 0.797015
vn 0.794446 -0.002515 0.607329
vn 0.795727 -0.003813 0.605643
vn 0.793377 -0.001435 0.608728
vn 0.793377 -0.001435 0.608728
vn 0.791950 0.000000 0.610585
vn 0.794446 -0.002515 0.607329
s off
g Computadora:MOUSE
usemtl Computadora:COMP1SG
f 33/37/85 23/38/86 24/39/87
f 24/39/88 34/40/89 22/41/90
f 33/37/91 24/39/92 22/41/93
f 21/42/94 33/37/95 22/41/96
f 23/38/97 25/43/98 35/44/99
f 35/44/100 36/45/101 26/46/102
f 23/38/103 35/44/104 26/46/105
f 23/38/106 26/46/107 24/39/108
f 27/47/109 38/48/110 28/49/111
f 27/47/112 28/49/113 30/50/114
f 27/47/115 30/50/116 29/51/117
f 37/52/118 27/47/119 29/51/120
f 30/50/121 40/53/122 32/54/123
f 29/51/124 30/50/125 32/54/126
f 32/54/127 39/55/128 31/56/129
f 29/51/130 32/54/131 31/56/132
f 21/57/133 22/58/134 38/48/135
f 38/48/136 27/47/137 21/57/138
f 34/59/139 24/60/140 30/50/141
f 30/50/142 28/49/143 34/59/144
f 24/61/145 26/62/146 40/63/147
f 40/63/148 30/64/149 24/61/150
f 36/65/151 35/66/152 39/55/153
f 39/55/154 32/54/155 36/65/156
f 25/67/157 23/68/158 29/69/159
f 29/69/160 31/70/161 25/67/162
f 23/71/163 33/72/164 37/52/165
f 37/52/166 29/51/167 23/71/168
f 22/73/169 34/59/170 28/49/171
f 28/49/172 38/74/173 22/73/174
f 27/75/175 37/52/176 33/72/177
f 33/72/178 21/76/179 27/75/180
f 26/77/181 36/65/182 32/54/183
f 32/54/184 40/78/185 26/77/186
f 35/79/187 25/67/188 31/70/189
f 31/70/190 39/80/191 35/79/192
g default
v 8.536899 8.454485 0.702755
v 8.090233 8.454485 0.786308
v 8.567857 8.435551 0.748695
v 8.077975 8.435551 0.840332
v 8.565017 8.471709 1.187133
v 8.239102 8.471709 1.248097
v 8.536899 8.845901 0.702755
v 8.090233 8.845901 0.786308
v 8.567857 8.864836 0.748695
v 8.077975 8.864836 0.840332
v 8.565017 8.757310 1.187133
v 8.239102 8.757310 1.248097
v 8.598280 8.435551 0.911340
v 8.108398 8.435551 1.002978
v 8.108398 8.864836 1.002978
v 8.598280 8.864836 0.911340
vt 0.153669 0.005409
vt 0.153582 0.005322
vt 0.155561 0.005322
vt 0.155474 0.005409
vt 0.113558 0.146462
vt 0.110951 0.146485
vt 0.110873 0.146410
vt 0.113635 0.146385
vt 0.153669 0.007214
vt 0.155474 0.007214
vt 0.155561 0.007301
vt 0.153582 0.007301
vt 0.110896 0.149113
vt 0.110972 0.149036
vt 0.113582 0.149013
vt 0.113659 0.149088
vt 0.003051 0.002688
vt 0.156577 0.002688
vt 0.156577 0.141763
vt 0.003051 0.141763
vt 0.003051 0.145381
vt 0.115073 0.145381
vt 0.115073 0.246858
vt 0.003051 0.246858
vt 0.113134 0.148472
vt 0.113121 0.146785
vt 0.111393 0.146800
vt 0.111410 0.148487
vn -0.064159 -0.937146 -0.342989
vn -0.064159 -0.937146 -0.342989
vn -0.064160 -0.937146 -0.342989
vn -0.064163 -0.937137 -0.343011
vn -0.064163 -0.937137 -0.343011
vn -0.064163 -0.937137 -0.343011
vn 0.000000 -1.000000 0.000000
vn 0.000000 -1.000000 0.000000
vn 0.000000 -1.000000 0.000000
vn 0.000000 -1.000000 0.000000
vn 0.000000 -1.000000 0.000000
vn 0.000000 -1.000000 0.000000
vn -0.064163 0.937138 -0.343010
vn -0.064163 0.937138 -0.343010
vn -0.064163 0.937138 -0.343010
vn -0.064163 0.937138 -0.343010
vn -0.064163 0.937138 -0.343010
vn -0.064163 0.937138 -0.343010
vn 0.000000 1.000000 0.000000
vn 0.000000 1.000000 0.000000
vn 0.000000 1.000000 0.000000
vn 0.000000 1.000000 0.000000
vn 0.000000 1.000000 0.000000
vn 0.000000 1.000000 0.000000
vn -0.183868 0.000000 -0.982951
vn -0.183868 0.000000 -0.982951
vn -0.183868 0.000000 -0.982951
vn -0.183868 0.000000 -0.982951
vn -0.183868 0.000000 -0.982951
vn -0.183868 0.000000 -0.982951
vn -0.975212 0.000000 -0.221272
vn -0.975212 0.000000 -0.221272
vn -0.975212 0.000000 -0.221272
vn -0.975212 0.000000 -0.221272
vn -0.975212 0.000000 -0.221272
vn -0.975212 0.000000 -0.221272
vn -0.982951 0.000000 0.183868
vn -0.982951 0.000000 0.183868
vn -0.982951 0.000000 0.183868
vn -0.982951 0.000000 0.183868
vn -0.982951 0.000000 0.183868
vn -0.982951 0.000000 0.183868
vn 0.183868 0.000000 0.982951
vn 0.183868 0.000000 0.982951
vn 0.183868 0.000000 0.982951
vn 0.183868 0.000000 0.982951
vn 0.183868 0.000000 0.982951
vn 0.183868 0.000000 0.982951
vn 0.992805 0.000000 0.119744
vn 0.992805 0.000000 0.119744
vn 0.992805 0.000000 0.119744
vn 0.992805 0.000000 0.119744
vn 0.992805 0.000000 0.119744
vn 0.992805 0.000000 0.119744
vn 0.829290 0.000000 -0.558818
vn 0.829290 0.000000 -0.558818
vn 0.829290 0.000000 -0.558818
vn 0.829290 0.000000 -0.558818
vn 0.829290 0.000000 -0.558818
vn 0.829290 0.000000 -0.558818
vn 0.024861 -0.990817 0.132901
vn 0.024861 -0.990817 0.132901
vn 0.024861 -0.990817 0.132901
vn 0.024861 -0.990817 0.132901
vn 0.024861 -0.990817 0.132901
vn 0.024861 -0.990817 0.132901
vn 0.069139 0.926610 0.369613
vn 0.069139 0.926610 0.369613
vn 0.069139 0.926610 0.369613
vn 0.069139 0.926610 0.369613
vn 0.069139 0.926610 0.369613
vn 0.069139 0.926610 0.369613
vn -0.882392 0.000000 0.470515
vn -0.882392 0.000000 0.470515
vn -0.882392 0.000000 0.470515
vn -0.882392 0.000000 0.470515
vn -0.882392 0.000000 0.470515
vn -0.882392 0.000000 0.470515
vn 0.982951 0.000000 -0.183868
vn 0.982951 0.000000 -0.183868
vn 0.982951 0.000000 -0.183868
vn 0.982951 0.000000 -0.183868
vn 0.982951 0.000000 -0.183868
vn 0.982951 0.000000 -0.183868
s off
g Computadora:MONITOR
usemtl Computadora:COMP1SG
f 41/81/193 43/82/194 44/83/195
f 44/83/196 42/84/197 41/81/198
f 53/85/199 54/86/200 44/87/201
f 44/87/202 43/88/203 53/85/204
f 47/89/205 48/90/206 50/91/207
f 50/91/208 49/92/209 47/89/210
f 50/93/211 55/94/212 56/95/213
f 56/95/214 49/96/215 50/93/216
f 41/97/217 42/98/218 48/99/219
f 48/99/220 47/100/221 41/97/222
f 42/84/223 44/83/224 50/91/225
f 50/91/226 48/90/227 42/84/228
f 54/86/229 55/94/230 50/93/231
f 50/93/232 44/87/233 54/86/234
f 46/101/235 45/102/236 51/103/237
f 51/103/238 52/104/239 46/101/240
f 53/85/241 56/95/242 51/105/243
f 51/105/244 45/106/245 53/85/246
f 43/82/247 41/81/248 47/89/249
f 47/89/250 49/92/251 43/82/252
f 45/106/253 46/107/254 54/86/255
f 54/86/256 53/85/257 45/106/258
f 52/108/259 51/105/260 56/95/261
f 56/95/262 55/94/263 52/108/264
f 46/107/265 52/108/266 55/94/267
f 55/94/268 54/86/269 46/107/270
f 43/88/271 49/96/272 56/95/273
f 56/95/274 53/85/275 43/88/276
