# This file uses centimeters as units for non-parametric coordinates.

mtllib masterM.mtl
g default
v -0.309522 -0.249381 0.381332
v -0.309306 -0.385110 0.516690
v -0.284040 -0.385053 0.516710
v -0.284255 -0.249324 0.381352
v -0.283668 -0.422537 0.100457
v -0.308935 -0.422594 0.100439
v -0.309323 -0.251718 0.100862
v -0.284055 -0.251660 0.100881
v -0.309117 -0.384741 0.240192
v -0.309331 -0.423165 0.677017
v -0.283850 -0.384684 0.240211
v 0.295990 -0.248006 0.381810
v 0.296202 -0.383735 0.517168
v 0.296392 -0.383366 0.240669
v -0.010852 -0.249630 0.677474
v 0.130444 -0.384325 0.677406
v 0.130460 -0.384293 0.653155
v -0.010837 -0.249598 0.653224
v 0.296178 -0.421789 0.677495
v 0.296575 -0.421219 0.100915
v 0.271125 -0.383423 0.240650
v 0.271308 -0.421276 0.100897
v 0.270929 -0.421842 0.653303
v 0.270938 -0.383792 0.517149
v -0.284047 -0.423102 0.652865
v -0.146098 -0.384921 0.652937
v 0.296189 -0.250343 0.101339
v 0.270918 -0.250400 0.101320
v 0.270723 -0.248063 0.381791
v -0.284576 -0.250220 0.653008
v -0.309781 -0.225032 0.677273
v -0.146114 -0.384953 0.677187
v 0.269692 -0.248979 0.653446
v 0.295729 -0.223657 0.677751
v 0.322619 -0.418341 0.093391
v -0.328769 0.003053 0.093093
v -0.326673 -0.419816 0.092880
v -0.327090 -0.422036 0.707183
v 0.322198 -0.420561 0.707696
v 0.320079 0.003381 0.093640
v -0.146114 -0.384953 0.677187
v 0.130444 -0.384325 0.677406
v -0.010852 -0.249630 0.677474
v 0.296178 -0.421789 0.677495
v 0.295729 -0.223657 0.677751
v -0.309331 -0.423165 0.677017
v -0.309781 -0.225032 0.677273
v 0.331815 -0.015699 -0.437357
v 0.331722 -0.015342 -0.301239
v 0.332218 -0.234886 -0.300632
v 0.332314 -0.235244 -0.436749
v 0.332233 -0.172317 -0.529237
v 0.332023 -0.078972 -0.530009
v 0.331762 -0.093784 -0.103077
v 0.331921 -0.164570 -0.102273
v 0.322198 -0.420561 0.707696
v 0.323037 -0.546035 -0.094019
v 0.322619 -0.418341 0.093391
v 0.322483 -0.545601 0.709327
v -0.326808 -0.547076 0.708814
v -0.327090 -0.422036 0.707183
v -0.326673 -0.419816 0.092880
v -0.326253 -0.547511 -0.094533
v -0.328769 0.003053 0.093093
v -0.327503 0.002967 -0.094640
v 0.321788 0.004443 -0.094125
v 0.320079 0.003381 0.093640
v -0.337049 -0.016861 -0.301768
v -0.336551 -0.236405 -0.301160
v -0.336746 -0.080491 -0.530538
v -0.336536 -0.173836 -0.529762
v -0.336456 -0.236763 -0.437278
v -0.336954 -0.017218 -0.437885
v -0.336847 -0.166089 -0.102802
v -0.337008 -0.095303 -0.103606
v -0.336847 -0.166089 -0.102802
v -0.336551 -0.236405 -0.301160
v 0.332218 -0.234886 -0.300632
v 0.331921 -0.164570 -0.102273
v 0.331815 -0.015699 -0.437357
v 0.332023 -0.078972 -0.530009
v -0.336746 -0.080491 -0.530538
v -0.336954 -0.017218 -0.437885
v -0.336536 -0.173836 -0.529762
v -0.337008 -0.095303 -0.103606
v 0.331762 -0.093784 -0.103077
v 0.332233 -0.172317 -0.529237
v 0.331722 -0.015342 -0.301239
v -0.337049 -0.016861 -0.301768
v 0.332314 -0.235244 -0.436749
v -0.336456 -0.236763 -0.437278
vt 0.671875 0.230469
vt 0.671875 0.320312
vt 0.656250 0.320313
vt 0.671875 0.230469
vt 0.656250 0.320313
vt 0.656250 0.230469
vt 0.656250 0.046875
vt 0.671875 0.046875
vt 0.671875 0.042969
vt 0.656250 0.046875
vt 0.671875 0.042969
vt 0.656249 0.042969
vt 0.671875 0.136719
vt 0.671875 0.046875
vt 0.671875 0.425781
vt 0.671875 0.136719
vt 0.671875 0.425781
vt 0.671875 0.318428
vt 0.671875 0.136719
vt 0.671875 0.230469
vt 0.656250 0.230469
vt 0.671875 0.136719
vt 0.656250 0.230469
vt 0.656249 0.136719
vt 0.500000 0.984375
vt 0.000000 0.035156
vt 0.992188 0.054687
vt 0.656250 0.136719
vt 0.656250 0.042969
vt 0.671875 0.042969
vt 0.656250 0.136719
vt 0.671875 0.042969
vt 0.671875 0.136719
vt 0.484375 0.425781
vt 0.394531 0.425781
vt 0.394531 0.410156
vt 0.484375 0.425781
vt 0.394531 0.410156
vt 0.484375 0.410156
vt 0.289063 0.425781
vt 0.289063 0.046875
vt 0.289063 0.136719
vt 0.289063 0.425781
vt 0.289063 0.136719
vt 0.289063 0.318428
vt 0.316406 0.113281
vt 0.316406 0.031250
vt 0.316406 0.359375
vt 0.316406 0.113281
vt 0.316406 0.359375
vt 0.316406 0.277521
vt 0.371094 0.468750
vt 0.628906 0.468750
vt 0.562500 0.210937
vt 0.371094 0.468750
vt 0.562500 0.210937
vt 0.434026 0.210937
vt 0.289063 0.136719
vt 0.289063 0.046875
vt 0.308594 0.046875
vt 0.289063 0.136719
vt 0.308594 0.046875
vt 0.308594 0.136719
vt 0.289063 0.136719
vt 0.308594 0.136719
vt 0.308594 0.230469
vt 0.289063 0.136719
vt 0.308594 0.230469
vt 0.289064 0.230469
vt 0.656250 0.410156
vt 0.671875 0.425781
vt 0.566406 0.425781
vt 0.656250 0.410156
vt 0.566406 0.425781
vt 0.567792 0.410329
vt 0.500000 0.984375
vt 0.992188 0.054687
vt 0.000000 0.039062
vt 0.308594 0.320312
vt 0.289063 0.320312
vt 0.289063 0.230469
vt 0.308594 0.320312
vt 0.289063 0.230469
vt 0.308594 0.230469
vt 0.289063 0.046875
vt 0.308594 0.046875
vt 0.308594 0.046875
vt 0.289063 0.046875
vt 0.308594 0.046875
vt 0.289064 0.046875
vt 0.308594 0.410156
vt 0.289063 0.425781
vt 0.289063 0.320312
vt 0.308594 0.410156
vt 0.289063 0.320312
vt 0.314617 0.322039
vt 0.484375 0.425781
vt 0.484375 0.410156
vt 0.566406 0.410156
vt 0.484375 0.425781
vt 0.566406 0.410156
vt 0.566406 0.425781
vt 1.457031 0.894531
vt 0.992188 0.058594
vt 1.468750 -0.128906
vt 0.996094 0.035156
vt 0.496094 0.945312
vt 0.503906 0.000000
vt 0.566406 -0.132813
vt 1.000000 0.039062
vt 0.558594 0.839844
vt 0.656250 0.320312
vt 0.671875 0.320312
vt 0.671875 0.425781
vt 1.457031 0.894531
vt 0.992188 0.058594
vt 1.468750 -0.132813
vt 0.644531 0.113281
vt 0.644531 0.277344
vt 0.644531 0.027344
vt 1.468750 -0.132813
vt 0.992188 0.054687
vt 1.457031 0.894531
vt 1.000000 0.035156
vt 0.539063 0.000000
vt 0.488281 0.988281
vt 0.500000 0.984375
vt 0.000000 0.035156
vt 0.992188 0.058594
vt 0.656250 0.410156
vt 0.656250 0.320312
vt 0.671875 0.425781
vt 0.644531 0.031250
vt 0.644531 0.277344
vt 0.644531 0.359375
vt 0.433594 0.210937
vt 0.562500 0.210937
vt 0.500000 0.210937
vt 1.000000 0.035156
vt 0.566406 -0.128906
vt 0.558594 0.839844
vt 1.468750 -0.132813
vt 0.988281 0.054687
vt 1.457031 0.894531
vt 0.371094 0.468750
vt 0.433594 0.210937
vt 0.371094 0.210937
vt 0.000000 0.035156
vt 0.496094 0.980469
vt 0.988281 0.058594
vt 0.562500 0.210937
vt 0.628906 0.468750
vt 0.628906 0.210937
vt 0.308594 0.410156
vt 0.394531 0.410156
vt 0.394531 0.425781
vt 0.289063 0.425781
vt 0.308594 0.410156
vt 0.394531 0.425781
vt 0.011719 0.949219
vt 0.500000 0.718750
vt 0.496094 0.949219
vt 0.488281 0.718750
vt 0.488281 0.976562
vt 0.015625 0.980469
vt 0.488281 0.718750
vt 0.015625 0.980469
vt 0.015625 0.722656
vt 0.011719 0.949219
vt 0.011719 0.722656
vt 0.500000 0.718750
vt 0.996094 0.042969
vt 0.000000 0.058594
vt 0.507813 0.968750
vt 0.566406 0.425781
vt 0.289063 0.425781
vt 0.394531 0.425781
vt 0.992188 0.062500
vt 0.488281 -0.015625
vt 0.500000 0.972656
vt 0.566406 0.425781
vt 0.671875 0.425781
vt 0.289063 0.425781
vt 0.996094 0.011719
vt 1.507813 0.968750
vt 1.503906 0.000000
vt 0.769531 0.179687
vt 0.675781 0.179688
vt 0.675781 0.000000
vt 0.769531 0.179687
vt 0.675781 0.000000
vt 0.769531 0.000000
vt 0.769531 0.179687
vt 0.769531 0.000000
vt 0.833109 0.051701
vt 0.542969 0.058594
vt 0.675781 0.000000
vt 0.542969 0.113281
vt 0.675781 0.179687
vt 0.542969 0.113281
vt 0.675781 0.000000
vt 0.832031 0.125000
vt 0.769531 0.179687
vt 0.832031 0.050781
vt 0.988281 0.996094
vt 0.000000 0.000000
vt 0.996094 0.226562
vt 0.988281 0.996094
vt 0.003906 0.996094
vt 0.000000 0.000000
vt 0.011719 0.996094
vt 0.988281 0.996094
vt 0.996094 0.226562
vt 0.000000 0.000000
vt 0.011719 0.996094
vt 0.996094 0.226562
vt 0.996094 0.003906
vt 0.000000 0.003906
vt -0.000000 0.992187
vt 0.996094 0.003906
vt -0.000000 0.992187
vt 0.996091 0.992189
vt 0.992188 -0.011719
vt 0.000000 -0.011719
vt 0.992188 0.746094
vt 0.996094 0.746094
vt 0.000000 0.980469
vt 0.000000 -0.015625
vt 0.000000 -0.011719
vt 0.000000 0.976562
vt 0.992188 0.746094
vt 0.996094 -0.015625
vt 0.996094 0.746094
vt 0.000000 -0.015625
vt 0.050781 0.000000
vt 0.945313 0.000000
vt 0.945313 1.000000
vt 0.046875 1.000000
vt 0.050781 0.000000
vt 0.945313 1.000000
vt 0.039063 0.000000
vt 0.039063 1.000000
vt 0.949219 0.000000
vt 0.949219 1.000000
vt 0.949219 0.000000
vt 0.039063 1.000000
vt 0.542969 0.113281
vt 0.675781 0.179687
vt 0.542969 0.058594
vt 0.675781 0.179687
vt 0.675781 0.000000
vt 0.542969 0.058594
vt 0.832031 0.125000
vt 0.832031 0.050781
vt 0.769531 0.000000
vt 0.769531 0.000000
vt 0.769531 0.179687
vt 0.832031 0.125000
vt 0.675781 0.000000
vt 0.675781 0.179687
vt 0.769531 0.179688
vt 0.675781 0.000000
vt 0.769531 0.179688
vt 0.769531 0.000000
vt 0.941406 0.136719
vt 0.941406 0.023438
vt 0.050781 0.023437
vt 0.941406 0.136719
vt 0.050781 0.023437
vt 0.050776 0.136718
vt 0.050781 0.425781
vt 0.050781 0.300781
vt 0.941406 0.300781
vt 0.050781 0.425781
vt 0.941406 0.300781
vt 0.941409 0.425783
vt 0.941406 0.300781
vt 0.050781 0.300781
vt 0.933594 0.121094
vt 0.050781 0.300781
vt 0.050781 0.121094
vt 0.933594 0.121094
vt 0.941406 0.273437
vt 0.050781 0.273437
vt 0.050781 0.425781
vt 0.050781 0.425781
vt 0.937500 0.425781
vt 0.941406 0.273437
vt 0.050781 0.121094
vt 0.046875 0.023437
vt 0.933594 0.121094
vt 0.050781 0.425781
vt 0.941406 0.425781
vt 0.937500 0.425781
vt 0.941406 0.023437
vt 0.933594 0.121094
vt 0.046875 0.023437
vt 0.046875 0.023437
vt 0.050781 0.023437
vt 0.941406 0.023437
vt 0.941406 0.023437
vt 0.941406 0.023437
vt 0.050781 0.023437
vt 0.937500 0.425781
vt 0.050781 0.425781
vt 0.050781 0.425781
vn -0.002160 0.706134 0.708075
vn -0.002154 0.706135 0.708074
vn -0.002160 0.706134 0.708075
vn -0.002160 0.706134 0.708075
vn -0.002160 0.706134 0.708075
vn -0.002165 0.706134 0.708075
vn 0.000737 0.002481 -0.999997
vn 0.000730 0.002479 -0.999997
vn 0.000737 0.002481 -0.999997
vn 0.000737 0.002481 -0.999997
vn 0.000737 0.002481 -0.999997
vn 0.000745 0.002482 -0.999997
vn -0.999997 -0.002269 -0.000689
vn -0.999997 -0.002271 -0.000689
vn -0.999997 -0.002267 -0.000690
vn -0.999997 -0.002269 -0.000689
vn -0.999997 -0.002267 -0.000690
vn -0.999997 -0.002267 -0.000689
vn -0.001106 0.721730 -0.692174
vn -0.001106 0.721730 -0.692174
vn -0.001106 0.721730 -0.692174
vn -0.001106 0.721730 -0.692174
vn -0.001106 0.721730 -0.692174
vn -0.001106 0.721730 -0.692174
vn 0.999997 0.002254 0.000693
vn 0.999997 0.002268 0.000691
vn 0.999997 0.002271 0.000694
vn -0.002158 0.723284 0.690548
vn -0.002168 0.723283 0.690548
vn -0.002158 0.723284 0.690548
vn -0.002158 0.723284 0.690548
vn -0.002158 0.723284 0.690548
vn -0.002147 0.723285 0.690547
vn 0.689995 0.723813 0.001404
vn 0.689996 0.723812 0.001410
vn 0.689995 0.723813 0.001404
vn 0.689995 0.723813 0.001404
vn 0.689995 0.723813 0.001404
vn 0.689995 0.723813 0.001399
vn 0.999997 0.002277 0.000691
vn 0.999997 0.002271 0.000695
vn 0.999997 0.002271 0.000694
vn 0.999997 0.002277 0.000691
vn 0.999997 0.002271 0.000694
vn 0.999997 0.002268 0.000691
vn -0.999997 -0.002256 -0.000685
vn -0.999997 -0.002286 -0.000691
vn -0.999992 -0.003877 -0.001145
vn -0.999997 -0.002256 -0.000685
vn -0.999992 -0.003877 -0.001145
vn -0.999992 -0.003868 -0.001142
vn 0.000954 -0.000377 -1.000000
vn 0.000542 -0.000074 -1.000000
vn 0.000666 0.000050 -1.000000
vn 0.000954 -0.000377 -1.000000
vn 0.000666 0.000050 -1.000000
vn 0.000952 0.000394 -1.000000
vn -0.002147 0.723284 0.690548
vn -0.002158 0.723283 0.690548
vn -0.002147 0.723284 0.690548
vn -0.002147 0.723284 0.690548
vn -0.002147 0.723284 0.690548
vn -0.002136 0.723285 0.690547
vn -0.001111 0.721730 -0.692173
vn -0.001116 0.721730 -0.692174
vn -0.001111 0.721730 -0.692173
vn -0.001111 0.721730 -0.692173
vn -0.001111 0.721730 -0.692173
vn -0.001106 0.721731 -0.692173
vn 0.698777 0.715149 -0.016515
vn 0.698777 0.715149 -0.016515
vn 0.698777 0.715149 -0.016515
vn 0.697264 0.716813 0.001428
vn 0.697264 0.716813 0.001428
vn 0.697264 0.716813 0.001428
vn -0.999997 -0.002272 -0.000689
vn -0.999997 -0.002269 -0.000689
vn -0.999997 -0.002267 -0.000689
vn -0.002144 0.706136 0.708073
vn -0.002144 0.706136 0.708073
vn -0.002144 0.706136 0.708073
vn -0.002144 0.706136 0.708073
vn -0.002144 0.706136 0.708073
vn -0.002143 0.706136 0.708073
vn 0.000737 0.002481 -0.999997
vn 0.000730 0.002479 -0.999997
vn 0.000737 0.002481 -0.999997
vn 0.000737 0.002481 -0.999997
vn 0.000737 0.002481 -0.999997
vn 0.000745 0.002482 -0.999997
vn -0.029628 0.707865 -0.705726
vn -0.029628 0.707865 -0.705726
vn -0.029628 0.707865 -0.705726
vn -0.001073 0.710960 -0.703232
vn -0.001073 0.710960 -0.703232
vn -0.001073 0.710960 -0.703232
vn -0.707267 0.706946 0.000468
vn -0.707269 0.706944 0.000485
vn -0.707267 0.706946 0.000468
vn -0.707267 0.706946 0.000468
vn -0.707267 0.706946 0.000468
vn -0.707266 0.706948 0.000451
vn 0.999997 0.002261 0.000698
vn 0.999997 0.002271 0.000694
vn 0.999997 0.002271 0.000695
vn 0.999997 0.002268 0.000691
vn 0.999997 0.002261 0.000686
vn 0.999997 0.002277 0.000691
vn 0.999996 0.002661 0.000800
vn 0.999997 0.002463 0.000745
vn 0.999995 0.003057 0.000911
vn -0.001054 0.708216 -0.705995
vn -0.001054 0.708216 -0.705995
vn -0.001054 0.708216 -0.705995
vn 0.999997 0.002268 0.000687
vn 0.999997 0.002266 0.000689
vn 0.999997 0.002263 0.000689
vn 0.999997 0.002266 0.000689
vn 0.999997 0.002463 0.000745
vn 0.999997 0.002263 0.000689
vn -0.999997 -0.002271 -0.000689
vn -0.999997 -0.002269 -0.000689
vn -0.999997 -0.002272 -0.000689
vn -0.999997 -0.002267 -0.000689
vn -0.999997 -0.002267 -0.000690
vn -0.999997 -0.002269 -0.000691
vn 0.999997 0.002274 0.000690
vn 0.999997 0.002463 0.000745
vn 0.999997 0.002266 0.000689
vn 0.033489 0.710583 -0.702816
vn 0.033489 0.710583 -0.702816
vn 0.033489 0.710583 -0.702816
vn 0.999997 0.002263 0.000689
vn 0.999997 0.002463 0.000745
vn 0.999996 0.002661 0.000800
vn 0.000952 0.000394 -1.000000
vn 0.000666 0.000050 -1.000000
vn 0.000786 0.001336 -0.999999
vn -0.999992 -0.003868 -0.001142
vn -0.999992 -0.003877 -0.001145
vn -0.999972 -0.007154 -0.002067
vn -0.999997 -0.002286 -0.000691
vn -0.999997 -0.002256 -0.000685
vn -0.999997 -0.002279 -0.000693
vn 0.000954 -0.000377 -1.000000
vn 0.000952 0.000394 -1.000000
vn 0.001278 0.000833 -0.999999
vn -0.999992 -0.003868 -0.001142
vn -0.999997 -0.002265 -0.000679
vn -0.999997 -0.002256 -0.000685
vn 0.000666 0.000050 -1.000000
vn 0.000542 -0.000074 -1.000000
vn 0.000293 0.000829 -1.000000
vn -0.696983 0.717088 0.000068
vn -0.696945 0.717124 0.000494
vn -0.696983 0.717088 0.000068
vn -0.697020 0.717051 -0.000358
vn -0.696983 0.717088 0.000068
vn -0.696983 0.717088 0.000068
vn 0.799244 0.269284 0.537303
vn -0.448991 -0.002714 0.893532
vn -0.874231 0.433855 0.217923
vn -0.874231 0.433855 0.217923
vn -0.407573 0.415653 0.813091
vn 0.662442 0.670063 0.334942
vn -0.874231 0.433855 0.217923
vn 0.662442 0.670063 0.334942
vn 0.799244 0.269284 0.537303
vn 0.799244 0.269284 0.537303
vn 0.703558 0.003818 0.710627
vn -0.448991 -0.002714 0.893532
vn -0.000786 -0.001336 0.999999
vn -0.000786 -0.001336 0.999999
vn -0.000786 -0.001336 0.999999
vn -0.000775 -0.001200 0.999999
vn -0.000803 -0.001155 0.999999
vn -0.000802 -0.001239 0.999999
vn -0.000802 -0.001239 0.999999
vn -0.000803 -0.001155 0.999999
vn -0.000834 -0.001295 0.999999
vn -0.000775 -0.001200 0.999999
vn -0.000763 -0.001189 0.999999
vn -0.000803 -0.001155 0.999999
vn -0.000775 -0.001200 0.999999
vn -0.000738 -0.001293 0.999999
vn -0.000763 -0.001189 0.999999
vn 0.721537 0.661553 -0.204283
vn 0.558899 0.803218 0.206088
vn 0.713639 -0.690089 0.120404
vn 0.721537 0.661553 -0.204283
vn 0.713639 -0.690089 0.120404
vn 0.572198 -0.755265 -0.319631
vn 0.721537 0.661553 -0.204283
vn 0.572198 -0.755265 -0.319631
vn 0.749684 -0.310830 -0.584259
vn 0.894787 -0.419248 0.153585
vn 0.713639 -0.690089 0.120404
vn 0.907648 0.165739 -0.385624
vn 0.558899 0.803218 0.206088
vn 0.907648 0.165739 -0.385624
vn 0.713639 -0.690089 0.120404
vn 0.348669 0.282882 -0.893537
vn 0.721537 0.661553 -0.204283
vn 0.749684 -0.310830 -0.584259
vn 0.662442 0.670063 0.334942
vn 0.802816 -0.265543 -0.533828
vn 0.799244 0.269284 0.537303
vn 0.662442 0.670063 0.334942
vn 0.336183 -0.660906 0.670957
vn 0.802816 -0.265543 -0.533828
vn -0.817579 -0.405611 0.408711
vn -0.407573 0.415653 0.813091
vn -0.874231 0.433855 0.217923
vn -0.664952 -0.668311 -0.333465
vn -0.817579 -0.405611 0.408711
vn -0.874231 0.433855 0.217923
vn 0.336183 -0.660906 0.670957
vn 0.662442 0.670063 0.334942
vn -0.407573 0.415653 0.813091
vn 0.336183 -0.660906 0.670957
vn -0.407573 0.415653 0.813091
vn -0.817579 -0.405611 0.408711
vn -0.448991 -0.002714 0.893532
vn -0.705504 -0.002686 -0.708701
vn -0.874231 0.433855 0.217923
vn 0.799244 0.269284 0.537303
vn 0.802816 -0.265543 -0.533828
vn 0.896239 0.003625 -0.443557
vn -0.705504 -0.002686 -0.708701
vn -0.664952 -0.668311 -0.333465
vn -0.874231 0.433855 0.217923
vn 0.703558 0.003818 0.710627
vn 0.799244 0.269284 0.537303
vn 0.896239 0.003625 -0.443557
vn 0.802816 -0.265543 -0.533828
vn -0.664952 -0.668311 -0.333465
vn -0.705504 -0.002686 -0.708701
vn 0.896239 0.003625 -0.443557
vn 0.802816 -0.265543 -0.533828
vn -0.705504 -0.002686 -0.708701
vn 0.802816 -0.265543 -0.533828
vn 0.336183 -0.660906 0.670957
vn -0.664952 -0.668311 -0.333465
vn -0.817579 -0.405611 0.408711
vn -0.664952 -0.668311 -0.333465
vn 0.336183 -0.660906 0.670957
vn -0.871211 0.480008 -0.102876
vn -0.714408 0.694460 0.085707
vn -0.831231 -0.524876 0.183195
vn -0.714408 0.694460 0.085707
vn -0.834533 -0.543013 0.093230
vn -0.831231 -0.524876 0.183195
vn -0.597495 0.489077 -0.635455
vn -0.269920 -0.454257 -0.848996
vn -0.719604 -0.681239 -0.134477
vn -0.719604 -0.681239 -0.134477
vn -0.844378 0.511343 -0.159854
vn -0.597495 0.489077 -0.635455
vn -0.834533 -0.543013 0.093230
vn -0.714408 0.694460 0.085707
vn -0.844378 0.511343 -0.159854
vn -0.834533 -0.543013 0.093230
vn -0.844378 0.511343 -0.159854
vn -0.719604 -0.681239 -0.134477
vn -0.831231 -0.524876 0.183195
vn -0.834533 -0.543013 0.093230
vn 0.713639 -0.690089 0.120404
vn -0.831231 -0.524876 0.183195
vn 0.713639 -0.690089 0.120404
vn 0.894787 -0.419248 0.153585
vn 0.721537 0.661553 -0.204283
vn 0.348669 0.282882 -0.893537
vn -0.597495 0.489077 -0.635455
vn 0.721537 0.661553 -0.204283
vn -0.597495 0.489077 -0.635455
vn -0.844378 0.511343 -0.159854
vn -0.597495 0.489077 -0.635455
vn 0.348669 0.282882 -0.893537
vn -0.269920 -0.454257 -0.848996
vn 0.348669 0.282882 -0.893537
vn 0.749684 -0.310830 -0.584259
vn -0.269920 -0.454257 -0.848996
vn -0.871211 0.480008 -0.102876
vn 0.907648 0.165739 -0.385624
vn 0.558899 0.803218 0.206088
vn 0.558899 0.803218 0.206088
vn -0.714408 0.694460 0.085707
vn -0.871211 0.480008 -0.102876
vn 0.749684 -0.310830 -0.584259
vn 0.572198 -0.755265 -0.319631
vn -0.269920 -0.454257 -0.848996
vn 0.721537 0.661553 -0.204283
vn -0.844378 0.511343 -0.159854
vn -0.714408 0.694460 0.085707
vn -0.719604 -0.681239 -0.134477
vn -0.269920 -0.454257 -0.848996
vn 0.572198 -0.755265 -0.319631
vn 0.572198 -0.755265 -0.319631
vn 0.713639 -0.690089 0.120404
vn -0.719604 -0.681239 -0.134477
vn -0.834533 -0.543013 0.093230
vn -0.719604 -0.681239 -0.134477
vn 0.713639 -0.690089 0.120404
vn -0.714408 0.694460 0.085707
vn 0.558899 0.803218 0.206088
vn 0.721537 0.661553 -0.204283
s off
g polySurface2
usemtl initialShadingGroup
f 1/1/1 2/2/2 3/3/3
f 1/4/4 3/5/5 4/6/6
f 5/7/7 6/8/8 7/9/9
f 5/10/10 7/11/11 8/12/12
f 9/13/13 6/14/14 10/15/15
f 9/16/16 10/17/17 2/18/18
f 9/19/19 1/20/20 4/21/21
f 9/22/22 4/23/23 11/24/24
f 12/25/25 13/26/26 14/27/27
f 11/28/28 8/29/29 7/30/30
f 11/31/31 7/32/32 9/33/33
f 15/34/34 16/35/35 17/36/36
f 15/37/37 17/38/38 18/39/39
f 19/40/40 20/41/41 14/42/42
f 19/43/43 14/44/44 13/45/45
f 21/46/46 22/47/47 23/48/48
f 21/49/49 23/50/50 24/51/51
f 23/52/52 25/53/53 26/54/54
f 23/55/55 26/56/56 17/57/57
f 14/58/58 27/59/59 28/60/60
f 14/61/61 28/62/62 21/63/63
f 14/64/64 21/65/65 29/66/66
f 14/67/67 29/68/68 12/69/69
f 30/70/70 31/71/71 32/72/72
f 30/73/73 32/74/74 26/75/75
f 1/76/76 9/77/77 2/78/78
f 24/79/79 13/80/80 12/81/81
f 24/82/82 12/83/83 29/84/84
f 20/85/85 22/86/86 28/87/87
f 20/88/88 28/89/89 27/90/90
f 33/91/91 34/92/92 13/93/93
f 33/94/94 13/95/95 24/96/96
f 15/97/97 18/98/98 26/99/99
f 15/100/100 26/101/101 32/102/102
f 27/103/103 14/104/104 20/105/105
f 13/106/106 34/107/107 19/108/108
f 25/109/109 3/110/110 30/111/111
f 3/112/112 2/113/113 31/114/114
f 8/115/115 11/116/116 5/117/117
f 11/118/118 3/119/119 5/120/120
f 6/121/121 9/122/122 7/123/123
f 2/124/124 10/125/125 31/126/126
f 4/127/127 3/128/128 11/129/129
f 30/130/130 3/131/131 31/132/132
f 5/133/133 3/134/134 25/135/135
f 17/136/136 26/137/137 18/138/138
f 24/139/139 23/140/140 33/141/141
f 22/142/142 21/143/143 28/144/144
f 23/145/145 17/146/146 33/147/147
f 24/148/148 29/149/149 21/150/150
f 26/151/151 25/152/152 30/153/153
f 33/154/154 17/155/155 16/156/156
f 34/157/157 33/158/158 16/159/159
f 35/160/160 36/161/161 37/162/162
f 37/163/163 38/164/164 39/165/165
f 37/166/166 39/167/167 35/168/168
f 35/169/169 40/170/170 36/171/171
f 41/172/172 42/173/173 43/174/174
f 41/175/175 44/176/176 42/177/177
f 42/178/178 44/179/179 45/180/180
f 41/181/181 46/182/182 44/183/183
f 41/184/184 47/185/185 46/186/186
f 48/187/187 49/188/188 50/189/189
f 48/190/190 50/191/191 51/192/192
f 48/193/193 51/194/194 52/195/195
f 55/196/196 50/197/197 54/198/198
f 49/199/199 54/200/200 50/201/201
f 53/202/202 48/203/203 52/204/204
f 56/205/205 57/206/206 58/207/207
f 56/208/208 59/209/209 57/210/210
f 60/211/211 61/212/212 62/213/213
f 63/214/214 60/215/215 62/216/216
f 59/217/217 56/218/218 61/219/219
f 59/220/220 61/221/221 60/222/222
f 64/223/223 65/224/224 62/225/225
f 58/226/226 57/227/227 66/228/228
f 65/229/229 63/230/230 62/231/231
f 67/232/232 58/233/233 66/234/234
f 57/235/235 63/236/236 65/237/237
f 66/238/238 57/239/239 65/240/240
f 57/241/241 59/242/242 63/243/243
f 60/244/244 63/245/245 59/246/246
f 75/247/247 68/248/248 74/249/249
f 68/250/250 69/251/251 74/252/252
f 70/253/253 71/254/254 72/255/255
f 72/256/256 73/257/257 70/258/258
f 69/259/259 68/260/260 73/261/261
f 69/262/262 73/263/263 72/264/264
f 76/265/265 77/266/266 78/267/267
f 76/268/268 78/269/269 79/270/270
f 80/271/271 81/272/272 82/273/273
f 80/274/274 82/275/275 83/276/276
f 82/277/277 81/278/278 84/279/279
f 81/280/280 87/281/281 84/282/282
f 85/283/283 86/284/284 88/285/285
f 88/286/286 89/287/287 85/288/288
f 87/289/289 90/290/290 84/291/291
f 80/292/292 83/293/293 89/294/294
f 91/295/295 84/296/296 90/297/297
f 90/298/298 78/299/299 91/300/300
f 77/301/301 91/302/302 78/303/303
f 89/304/304 88/305/305 80/306/306
